<svg width="50" height="53" viewBox="0 0 50 53" fill="none" xmlns="http://www.w3.org/2000/svg">
<path d="M4.51275 40.06L4.03843 40.3436L4.03992 40.3463L4.51275 40.06ZM11.9646 48.0815L11.6873 48.5663L11.6896 48.5677L11.9646 48.0815ZM24.8241 47.003L25.3383 47.2013L25.3424 47.1894L24.8241 47.003ZM26.3409 12.4228L26.8889 12.4651L26.8895 12.4547L26.3409 12.4228ZM27.5279 6.55836L28.0311 6.78535L28.0381 6.76698L27.5279 6.55836ZM34.5841 7.36741L35.0693 7.10352L35.065 7.09543L34.5841 7.36741ZM36.2987 39.5882L36.8149 39.7813L36.8179 39.7723L36.2987 39.5882ZM30.4295 48.6881L30.0378 48.294L29.8347 48.505L29.8901 48.7957L30.4295 48.6881ZM30.9571 51.4519L30.4176 51.5594L30.5324 52.16L31.1081 51.992L30.9571 51.4519ZM46.8501 13.2993L46.3573 13.5478L46.3586 13.5504L46.8501 13.2993ZM25.6814 5.88428L26.1936 6.08802L26.1979 6.07639L25.6814 5.88428ZM23.9009 42.217L24.4452 42.2949L24.4466 42.2826L23.9009 42.217ZM13.7452 37.1615L14.2879 37.073L14.2868 37.0664L13.7452 37.1615ZM14.6025 12.8272L15.1258 12.9988L15.1277 12.9926L14.6025 12.8272ZM20.3398 3.72725L20.7084 4.14382L20.9374 3.93216L20.8795 3.62226L20.3398 3.72725ZM19.8122 0.896136L20.352 0.791148L20.2417 0.198975L19.6716 0.353168L19.8122 0.896136ZM6.09545 9.99613L6.53828 10.3288L6.53993 10.3266L6.09545 9.99613ZM0.797852 26.2415C0.797852 31.8398 1.8665 36.5509 4.03843 40.3436L4.98707 39.7762C2.93845 36.1991 1.89684 31.6978 1.89684 26.2415H0.797852ZM4.03992 40.3463C6.18613 44.0482 8.73131 46.7999 11.6873 48.5663L12.2419 47.5965C9.48277 45.9475 7.05991 43.3517 4.98558 39.7735L4.03992 40.3463ZM11.6896 48.5677C14.5517 50.2591 17.1759 51.1372 19.5484 51.1372V50.0137C17.4367 50.0137 15.0051 49.2293 12.2396 47.5951L11.6896 48.5677ZM19.5484 51.1372C20.9483 51.1372 22.1597 50.8206 23.1492 50.1506C24.1412 49.4788 24.8655 48.4821 25.3383 47.2013L24.3099 46.8046C23.9035 47.9056 23.3088 48.6949 22.5422 49.2141C21.7731 49.7348 20.7864 50.0137 19.5484 50.0137V51.1372ZM25.3424 47.1894C26.2063 44.6796 26.6266 41.4188 26.6266 37.4311H25.5276C25.5276 41.3525 25.1125 44.4728 24.3058 46.8164L25.3424 47.1894ZM26.6266 37.4311V22.3991H25.5276V37.4311H26.6266ZM26.6266 22.3991C26.6266 18.1351 26.7146 14.826 26.8889 12.4651L25.7929 12.3807C25.6155 14.7832 25.5276 18.125 25.5276 22.3991H26.6266ZM26.8895 12.4547C27.0191 10.1138 27.4069 8.23124 28.0311 6.78535L27.025 6.3317C26.3303 7.94156 25.9264 9.96867 25.7922 12.3911L26.8895 12.4547ZM28.0381 6.76698C28.3211 6.04421 28.6722 5.54775 29.0687 5.23245C29.4583 4.92272 29.9249 4.76094 30.4955 4.76094V3.63743C29.7031 3.63743 28.9937 3.8688 28.3941 4.34554C27.8014 4.81672 27.3503 5.49989 27.0176 6.3499L28.0381 6.76698ZM30.4955 4.76094C31.7895 4.76094 33.0047 5.60926 34.1032 7.63924L35.065 7.09543C33.8775 4.90115 32.3668 3.63743 30.4955 3.63743V4.76094ZM34.0989 7.63115C35.1651 9.67999 35.9856 12.229 36.55 15.2906L37.6301 15.0825C37.0513 11.9427 36.2013 9.27875 35.0693 7.10352L34.0989 7.63115ZM36.55 15.2906C37.1154 18.3145 37.3979 21.2464 37.3979 24.0844H38.4968C38.4968 21.1703 38.2077 18.1703 37.6301 15.0825L36.55 15.2906ZM37.3979 24.0844V27.7244H38.4968V24.0844H37.3979ZM37.3979 27.7244C37.3979 32.3565 36.8526 36.2447 35.7795 39.4038L36.8179 39.7723C37.9429 36.4603 38.4968 32.4394 38.4968 27.7244H37.3979ZM35.7827 39.3949C34.6712 42.4975 32.7628 45.4646 30.0378 48.294L30.8212 49.0821C33.6356 46.1595 35.6402 43.06 36.8149 39.7813L35.7827 39.3949ZM29.8901 48.7957L30.4176 51.5594L31.4965 51.3442L30.9689 48.5805L29.8901 48.7957ZM31.1081 51.992C37.3547 50.1676 42.0864 47.0336 45.251 42.563C48.4133 38.0954 49.9714 32.3476 49.9714 25.3652H48.8724C48.8724 32.1787 47.3531 37.6766 44.3604 41.9046C41.3699 46.1295 36.8693 49.141 30.8061 50.9116L31.1081 51.992ZM49.9714 25.3652C49.9714 20.753 49.1 16.6427 47.3415 13.048L46.3586 13.5504C48.0293 16.9661 48.8724 20.8998 48.8724 25.3652H49.9714ZM47.3428 13.0505C45.592 9.42519 43.2682 6.60369 40.3641 4.60927L39.7511 5.54168C42.4744 7.41207 44.6789 10.0728 46.3573 13.5478L47.3428 13.0505ZM40.3641 4.60927C37.4694 2.62126 34.4186 1.6152 31.2209 1.6152V2.73872C34.1782 2.73872 37.0185 3.66506 39.7511 5.54168L40.3641 4.60927ZM31.2209 1.6152C29.7363 1.6152 28.459 1.94162 27.4247 2.6339C26.3864 3.32887 25.6382 4.36222 25.1649 5.69234L26.1979 6.07639C26.604 4.93502 27.2186 4.11467 28.0268 3.57373C28.8389 3.03025 29.8917 2.73872 31.2209 2.73872V1.6152ZM25.1692 5.68071C24.2158 8.18675 23.747 11.1124 23.747 14.4452H24.846C24.846 11.2169 25.3006 8.43532 26.1936 6.08802L25.1692 5.68071ZM23.747 14.4452V32.7126H24.846V14.4452H23.747ZM23.747 32.7126C23.747 36.7486 23.6151 39.8915 23.355 42.1513L24.4466 42.2826C24.7141 39.9587 24.846 36.7653 24.846 32.7126H23.747ZM23.3566 42.139C23.0507 44.3727 22.6225 45.8687 22.1147 46.7072L23.0492 47.2985C23.6844 46.2497 24.1356 44.5551 24.4452 42.2949L23.3566 42.139ZM22.1147 46.7072C21.6287 47.5097 21.0245 47.8567 20.2738 47.8567V48.9802C21.4576 48.9802 22.3922 48.3835 23.0492 47.2985L22.1147 46.7072ZM20.2738 47.8567C18.8967 47.8567 17.6614 46.9691 16.6087 44.8603L15.6298 45.3707C16.7752 47.6658 18.3098 48.9802 20.2738 48.9802V47.8567ZM16.6087 44.8603C15.5417 42.7226 14.7647 40.1304 14.2879 37.073L13.2024 37.2498C13.6928 40.3938 14.4985 43.1045 15.6298 45.3707L16.6087 44.8603ZM14.2868 37.0664C13.7638 33.9477 13.5033 31.0138 13.5033 28.2637H12.4043C12.4043 31.0857 12.6714 34.0837 13.2036 37.2564L14.2868 37.0664ZM13.5033 28.2637V24.6237H12.4043V28.2637H13.5033ZM13.5033 24.6237C13.5033 20.3123 14.0469 16.4394 15.1258 12.9988L14.0792 12.6559C12.9598 16.2256 12.4043 20.2168 12.4043 24.6237H13.5033ZM15.1277 12.9926C16.1525 9.58798 18.0089 6.64043 20.7084 4.14382L19.9711 3.31084C17.1312 5.9372 15.1627 9.05631 14.0772 12.6621L15.1277 12.9926ZM20.8795 3.62226L20.352 0.791148L19.2724 1.00129L19.8 3.8324L20.8795 3.62226ZM19.6716 0.353168C13.5895 1.99875 8.90162 5.09713 5.65098 9.66584L6.53993 10.3266C9.6201 5.99753 14.0767 3.02924 19.9528 1.43927L19.6716 0.353168ZM5.65262 9.66365C2.40627 14.1801 0.797852 19.7173 0.797852 26.2415H1.89684C1.89684 19.9131 3.45382 14.6201 6.53828 10.3288L5.65262 9.66365Z" fill="#2300FB"/>
</svg>
