<svg width="23" height="23" viewBox="0 0 23 23" fill="none" xmlns="http://www.w3.org/2000/svg">
<path d="M21.7224 22.9668L22.9103 21.7789C21.8638 20.3364 21.1001 18.4413 20.5627 16.0937C19.4879 11.4551 20.3647 5.0346 22.9103 1.1879L21.7224 0C19.799 1.2445 17.5646 2.0647 15.0473 2.489C9.9561 3.3375 4.5538 2.4607 1.188 0.0565996L0 1.2445C1.2445 3.0547 2.0648 5.176 2.489 7.6367C3.3376 12.5582 2.4325 17.8756 0 21.7223L1.188 22.9102C3.0547 21.6657 5.4589 20.8455 8.3439 20.4495C14.1139 19.6576 18.8939 20.9304 21.7224 22.9668ZM21.4395 21.892C18.4979 19.403 14.3684 17.0271 11.4834 16.2352C8.4853 17.0837 4.2992 19.5161 1.5274 21.892L1.1314 21.496C3.5356 18.6959 5.968 14.3401 6.7317 11.4834C5.9114 8.5136 3.5639 4.4689 1.1314 1.5839L1.5274 1.1879C4.7518 3.8467 8.7399 6.0811 11.4269 6.7882C14.227 6.0811 18.7525 3.479 21.4395 1.1879L21.8355 1.5839C19.5162 4.2426 16.9989 8.5701 16.1786 11.54C16.8575 14.1987 19.1768 18.2716 21.8355 21.496L21.4395 21.892Z" fill="#FAEBD7"/>
</svg>
