<svg width="133" height="138" viewBox="0 0 133 138" fill="none" xmlns="http://www.w3.org/2000/svg">
<path d="M59.1804 111.118C59.1759 111.176 59.1565 111.202 59.1222 111.199C59.0885 111.197 59.0737 111.167 59.0783 111.11C59.1422 110.314 59.3443 109.656 59.6845 109.134C60.0247 108.612 60.4676 108.373 61.0139 108.417C61.4118 108.449 61.7303 108.618 61.9694 108.923C62.1955 109.239 62.2857 109.687 62.2389 110.267L62.2303 110.369L62.2548 110.491C62.2948 110.563 62.341 110.561 62.393 110.485C63.1499 109.196 64.1597 108.602 65.4229 108.704C66.0034 108.751 66.5365 108.954 67.0229 109.314C67.4972 109.684 67.8637 110.177 68.1234 110.793C68.3717 111.408 68.4642 112.102 68.402 112.875C68.3403 113.636 68.1006 114.332 67.6833 114.962C67.266 115.592 66.7455 116.076 66.1227 116.416C65.4874 116.765 64.8401 116.913 64.1796 116.859C63.7019 116.821 63.2658 116.688 62.8719 116.462C62.4655 116.246 62.1173 115.949 61.8273 115.571L61.5876 118.538C61.5516 118.982 61.5779 119.292 61.6669 119.471C61.744 119.649 61.8735 119.746 62.0556 119.76C62.0899 119.763 62.1647 119.758 62.2805 119.744C62.3268 119.736 62.3599 119.75 62.3799 119.786C62.3993 119.834 62.397 119.856 62.3747 119.855C61.8285 119.948 61.3433 120.069 60.9191 120.218C60.4825 120.377 60.0989 120.586 59.7689 120.846L59.7518 120.845C59.729 120.842 59.7073 120.829 59.6862 120.805C59.6531 120.79 59.6439 120.761 59.6588 120.717C59.7689 120.348 59.854 119.932 59.9145 119.467C59.975 119.003 60.0401 118.339 60.1097 117.475L60.6777 110.45C60.7079 110.074 60.6908 109.793 60.6257 109.604C60.5487 109.427 60.4077 109.33 60.2028 109.313C59.85 109.285 59.6091 109.431 59.4801 109.752C59.3397 110.073 59.2398 110.528 59.1804 111.118ZM64.3275 109.508C63.6785 109.456 63.171 109.644 62.804 110.072C62.4261 110.499 62.1909 111.144 62.0979 112.006L62.0294 112.858C61.9997 113.794 62.1669 114.626 62.5323 115.353C62.8856 116.08 63.461 116.475 64.2573 116.539C65.1335 116.61 65.7836 116.428 66.2083 115.993C66.6319 115.57 66.879 114.92 66.9498 114.045C67.0086 113.317 66.9281 112.613 66.7083 111.932C66.4886 111.25 66.1678 110.686 65.7454 110.24C65.3236 109.794 64.8509 109.55 64.3275 109.508Z" fill="#D7FCC3"/>
<path d="M53.7101 108.319C53.6936 108.339 53.677 108.335 53.6603 108.307C53.6325 108.276 53.6338 108.247 53.6641 108.219C54.2165 107.792 54.8136 107.516 55.4556 107.392C56.0948 107.28 56.747 107.305 57.4121 107.468C58.0885 107.635 58.6747 107.95 59.1719 108.413C59.6691 108.876 60.0173 109.443 60.2159 110.115C60.4151 110.786 60.4214 111.499 60.2359 112.252C60.0441 113.027 59.6896 113.68 59.1707 114.209C58.6382 114.748 58.012 115.117 57.2928 115.315C56.5708 115.525 55.8385 115.539 55.0958 115.356C54.2645 115.151 53.6346 114.749 53.2062 114.151C52.7667 113.549 52.644 112.855 52.8379 112.069C52.9335 111.681 53.0874 111.32 53.2995 110.984C54.2112 111.197 56.0621 111.606 58.8522 112.211C58.8808 111.525 58.7637 110.879 58.5012 110.274C58.2277 109.667 57.8647 109.16 57.4121 108.755C56.9595 108.35 56.4838 108.086 55.985 107.963C55.065 107.736 54.3067 107.855 53.7101 108.319ZM55.7973 115.229C56.5289 115.409 57.1432 115.325 57.6404 114.978C58.1353 114.642 58.4915 114.03 58.7101 113.145C58.7866 112.834 58.8317 112.558 58.8442 112.314L56.8661 111.898C56.3813 111.814 55.6373 111.66 54.6342 111.436C54.5019 111.591 54.4029 111.802 54.3373 112.068C54.2417 112.455 54.2431 112.879 54.3415 113.337C54.4372 113.807 54.6185 114.216 54.8855 114.564C55.1387 114.92 55.4426 115.142 55.7973 115.229Z" fill="#D7FCC3"/>
<path d="M52.7351 109.543C52.7068 109.58 52.6843 109.589 52.6678 109.57C52.6363 109.557 52.6295 109.529 52.6473 109.486C53.0576 108.583 53.1587 107.808 52.9505 107.161C52.7422 106.515 52.2495 106.026 51.4723 105.695C50.9472 105.472 50.507 105.383 50.1518 105.431C49.7861 105.474 49.5161 105.699 49.3415 106.108C49.1686 106.543 49.1957 106.989 49.4231 107.445C49.6354 107.907 50.0347 108.499 50.6208 109.219C51.1425 109.887 51.5117 110.447 51.7284 110.899C51.9452 111.351 51.9664 111.782 51.7919 112.191C51.6487 112.526 51.3884 112.788 51.011 112.974C50.6292 113.171 50.1797 113.265 49.6626 113.256C49.1453 113.246 48.6137 113.125 48.0675 112.893C47.3848 112.602 46.8107 112.246 46.3451 111.825C45.869 111.399 45.749 111.026 45.9852 110.705L47.1714 109.145C47.1953 109.119 47.2231 109.112 47.2546 109.125C47.2756 109.134 47.2719 109.157 47.2434 109.195C46.8676 110.076 46.7762 110.8 46.9692 111.365C47.1474 111.937 47.6355 112.393 48.4337 112.733C48.9799 112.965 49.3915 113.047 49.6687 112.979C49.9353 112.907 50.1269 112.734 50.2432 112.461C50.3372 112.241 50.3427 111.995 50.2596 111.725C50.1721 111.464 50.0329 111.194 49.842 110.914C49.6465 110.645 49.3436 110.25 48.9332 109.728C48.3846 109.036 47.9861 108.414 47.7375 107.862C47.474 107.315 47.452 106.786 47.6712 106.271C47.8323 105.894 48.1187 105.6 48.5305 105.391C48.9273 105.188 49.4151 105.092 49.9937 105.103C50.5574 105.12 51.1491 105.26 51.7687 105.524C52.2729 105.738 52.7156 105.995 53.097 106.294C53.4724 106.578 53.7331 106.868 53.8791 107.166C54.0252 107.464 54.028 107.719 53.8875 107.932L52.7351 109.543Z" fill="#D7FCC3"/>
<path d="M44.187 103.454C44.4066 103.108 44.5173 102.772 44.519 102.45C44.505 102.131 44.3611 101.878 44.0874 101.691C44.0392 101.661 44.0272 101.626 44.0517 101.588C44.0699 101.559 44.1032 101.559 44.1514 101.59C44.319 101.709 44.8177 102.031 45.6475 102.556C46.4773 103.08 46.987 103.395 47.1764 103.501C47.2246 103.531 47.2396 103.561 47.2213 103.59C47.1969 103.629 47.1606 103.633 47.1123 103.602C46.543 103.243 46.0021 103.468 45.4896 104.277L43.174 107.935C42.9787 108.244 42.8836 108.501 42.8886 108.706C42.8839 108.906 42.9974 109.079 43.2289 109.225C43.2675 109.25 43.3605 109.295 43.5078 109.361C43.5525 109.376 43.5735 109.396 43.571 109.421C43.5526 109.45 43.526 109.46 43.4909 109.452C42.3192 109.062 41.4089 108.878 40.7602 108.9C40.7033 108.905 40.6634 108.893 40.6405 108.865C40.608 108.831 40.604 108.795 40.6284 108.757C40.9609 108.359 41.2191 108.036 41.4031 107.788C41.5872 107.54 41.7952 107.233 42.027 106.867L44.187 103.454ZM40.5196 111.137C40.7705 111.295 40.9347 111.473 41.0123 111.671C41.0839 111.878 41.0678 112.063 40.964 112.227C40.8298 112.439 40.6204 112.557 40.3359 112.58C40.0453 112.611 39.7457 112.53 39.4368 112.335C39.186 112.177 39.0248 111.994 38.9533 111.787C38.866 111.583 38.8773 111.395 38.9871 111.221C39.1152 111.019 39.3295 110.905 39.6297 110.878C39.9142 110.856 40.2109 110.942 40.5196 111.137Z" fill="#D7FCC3"/>
<path d="M38.6931 97.3778C38.2659 96.9997 38.0457 96.5686 38.0325 96.0845C38.0108 95.5929 38.1628 95.1635 38.4883 94.7963C38.7608 94.4895 39.0885 94.2916 39.4714 94.2038C39.8543 94.116 40.2392 94.1291 40.6263 94.2431C41.0047 94.3498 41.3392 94.5311 41.6298 94.7883C42.0656 95.1744 42.3497 95.5935 42.4823 96.0457C42.6148 96.4985 42.6577 96.9398 42.611 97.3709C43.0805 97.5124 43.4991 97.7456 43.8665 98.0706C44.2767 98.4339 44.4992 98.8365 44.5341 99.279C44.5689 99.7209 44.4311 100.117 44.1207 100.467C43.5 101.167 42.5565 101.346 41.2902 101.002C41.5187 101.57 41.586 102.147 41.4922 102.735C41.3908 103.331 41.1168 103.88 40.6701 104.384C40.2083 104.905 39.66 105.265 39.0251 105.465C38.3741 105.666 37.7124 105.69 37.0399 105.536C36.3599 105.392 35.7465 105.077 35.1996 104.594C34.8321 104.268 34.5296 103.879 34.2917 103.424C33.7911 103.972 33.2697 104.241 32.7274 104.234C32.185 104.226 31.7131 104.045 31.3115 103.689C31.1833 103.576 31.1115 103.459 31.0962 103.339C31.0722 103.211 31.1228 103.111 31.2478 103.039L32.0903 102.527C32.239 102.446 32.3296 102.472 32.3621 102.608C32.4545 102.933 32.6204 103.202 32.8597 103.414C33.3382 103.838 33.7832 103.774 34.1947 103.224C33.9482 102.625 33.8747 102.012 33.9741 101.383C34.0735 100.755 34.3542 100.181 34.816 99.6599C35.2551 99.165 35.7963 98.8211 36.4397 98.6289C37.0756 98.4447 37.734 98.4333 38.415 98.5941C39.0874 98.7475 39.6971 99.0663 40.244 99.5499C40.6712 99.9285 41.0015 100.373 41.2346 100.884C41.6623 101.003 42.0213 101.055 42.3114 101.037C42.5939 101.028 42.8487 100.896 43.0758 100.64C43.2575 100.434 43.3367 100.207 43.3136 99.9587C43.2895 99.6936 43.1748 99.47 42.9697 99.2887C42.7305 99.0766 42.4742 98.9186 42.201 98.8137C41.9193 98.7013 41.5484 98.5867 41.0883 98.4692C40.5629 98.3392 40.1218 98.2001 39.7651 98.0518C39.3923 97.9047 39.0349 97.68 38.6931 97.3778ZM35.8625 104.723C36.3838 105.184 36.9141 105.395 37.4535 105.354C37.9929 105.313 38.52 105.003 39.0348 104.422C39.4662 103.936 39.8038 103.366 40.0473 102.713C40.2833 102.069 40.3751 101.449 40.3229 100.854C40.2547 100.26 40.0197 99.7859 39.618 99.4307C39.0797 98.954 38.5366 98.7321 37.9886 98.7652C37.4321 98.7909 36.8966 99.0942 36.3817 99.6742C35.9654 100.144 35.6477 100.709 35.4289 101.368C35.1939 102.029 35.111 102.664 35.1803 103.274C35.242 103.892 35.4695 104.375 35.8625 104.723ZM41.3711 94.9252C40.9866 94.5847 40.6393 94.392 40.3292 94.3458C40.0106 94.2928 39.7188 94.4154 39.4538 94.7142C39.2569 94.936 39.1706 95.1795 39.1948 95.4446C39.2103 95.7024 39.342 95.9408 39.5899 96.1597C39.9061 96.4397 40.2259 96.6467 40.5494 96.7807C40.8719 96.8988 41.2793 97.0151 41.7716 97.1309C42.0998 97.2079 42.3421 97.27 42.4986 97.3173C42.5074 96.929 42.4224 96.5258 42.2434 96.109C42.0635 95.675 41.7728 95.281 41.3711 94.9252Z" fill="#D7FCC3"/>
<path d="M30.6264 91.535C30.5822 91.5715 30.5457 91.5715 30.5168 91.5361C30.479 91.5082 30.4868 91.4722 30.5398 91.4289C31.0173 91.0394 31.4783 90.7742 31.9226 90.6323C32.367 90.4908 32.7597 90.4578 33.1011 90.5325C33.4424 90.6077 33.7069 90.76 33.8946 90.9898C34.3061 91.4933 34.1617 92.1999 33.4611 93.11L30.6946 96.7579C30.3849 97.1724 30.2146 97.5323 30.1838 97.8373C30.1369 98.1407 30.2723 98.4863 30.59 98.8752C30.951 99.3171 31.4516 99.5418 32.0918 99.5498C32.7159 99.5555 33.3724 99.3223 34.0613 98.8484L36.6214 96.7601C36.9662 96.479 37.1589 96.219 37.1993 95.98C37.2325 95.732 37.1415 95.4674 36.9266 95.1863C36.8905 95.1424 36.8901 95.1059 36.9255 95.0768C36.952 95.0551 36.9833 95.0665 37.0195 95.1104C37.1622 95.3032 37.5332 95.7662 38.1325 96.4995C38.7246 97.2238 39.1081 97.6839 39.283 97.8801C39.3191 97.9246 39.3238 97.9571 39.2973 97.9788C39.262 98.0078 39.2262 97.9999 39.1901 97.956C39.0313 97.7615 38.8864 97.6292 38.7556 97.5596C38.6247 97.4895 38.4713 97.4821 38.2953 97.5374C38.1033 97.591 37.8658 97.733 37.5828 97.9639L34.0809 100.82C33.7979 101.051 33.6262 101.265 33.5658 101.461C33.4981 101.649 33.5509 101.849 33.7242 102.061C33.7531 102.096 33.8269 102.168 33.9457 102.278C33.9834 102.306 33.997 102.331 33.9866 102.355C33.9601 102.377 33.9315 102.378 33.901 102.358C32.913 101.618 32.1078 101.156 31.4855 100.971C31.4301 100.958 31.3959 100.934 31.3832 100.901C31.3631 100.858 31.3708 100.822 31.4061 100.794C31.8386 100.529 32.1769 100.312 32.4213 100.142C32.6657 99.9723 32.947 99.7574 33.2654 99.4979C32.6547 99.7602 31.9991 99.8241 31.2989 99.6884C30.5913 99.5441 30.0318 99.2202 29.6203 98.7167C29.1509 98.1424 28.9317 97.6218 28.9628 97.1548C28.9865 96.6786 29.2088 96.1665 29.6294 95.6168L32.2874 92.0796C32.4933 91.8087 32.6301 91.5794 32.6978 91.3918C32.7494 91.2025 32.7246 91.0457 32.6235 90.9219C32.5513 90.8336 32.4224 90.7845 32.2369 90.7737C32.0514 90.7628 31.8228 90.817 31.5512 90.9356C31.2707 91.0611 30.9625 91.2612 30.6264 91.535Z" fill="#D7FCC3"/>
<path d="M27.371 84.1458C27.533 84.5723 27.5722 84.9436 27.4888 85.2601C27.4053 85.576 27.2301 85.7847 26.9633 85.8862C26.6075 86.0208 26.2308 85.9398 25.8333 85.6433C25.418 85.3536 25.0923 84.8974 24.8561 84.2753C24.6942 83.8487 24.655 83.4775 24.7384 83.161C24.8219 82.8451 24.997 82.6364 25.2638 82.5354C25.6197 82.4003 26.0086 82.487 26.4306 82.7943C26.8349 83.1091 27.1483 83.5596 27.371 84.1458Z" fill="#D7FCC3"/>
<path d="M25.4987 69.1465C25.9093 69.1299 26.2481 69.0307 26.5149 68.8488C26.77 68.656 26.8965 68.3943 26.8946 68.063C26.8923 68.0065 26.9139 67.9769 26.9596 67.9752C26.9938 67.9735 27.0121 68.0014 27.0143 68.0584C27.0112 68.2643 27.0294 68.8568 27.069 69.837C27.1085 70.8167 27.1383 71.4149 27.1585 71.631C27.1608 71.6881 27.1448 71.7171 27.1106 71.7183C27.065 71.7206 27.041 71.6926 27.0387 71.6356C27.0116 70.9633 26.5189 70.6468 25.5607 70.685L21.2318 70.8595C20.8667 70.8743 20.6009 70.9422 20.4344 71.0625C20.2675 71.172 20.1895 71.3636 20.2005 71.6373C20.2024 71.6829 20.2179 71.785 20.2472 71.9435C20.2604 71.9886 20.2559 72.0171 20.2335 72.0296C20.1993 72.0308 20.1758 72.0148 20.163 71.9812C19.8181 70.7968 19.4524 69.9437 19.0658 69.423C19.0297 69.3785 19.0167 69.3392 19.0268 69.3044C19.0363 69.2588 19.0639 69.2348 19.1095 69.2326C19.6256 69.2805 20.0381 69.3095 20.347 69.3198C20.6559 69.3301 21.0271 69.3267 21.4606 69.3095L25.4987 69.1465ZM17.0867 70.4957C17.0987 70.7916 17.0453 71.0277 16.9268 71.2039C16.7968 71.3807 16.6349 71.4725 16.4409 71.4805C16.19 71.4902 15.9743 71.3853 15.7941 71.164C15.6023 70.9433 15.4991 70.6508 15.4844 70.2864C15.4725 69.9899 15.5315 69.7532 15.6615 69.577C15.7796 69.3894 15.9413 69.2919 16.1466 69.2833C16.3862 69.2736 16.602 69.3848 16.7942 69.6169C16.9745 69.8382 17.072 70.1307 17.0867 70.4957Z" fill="#D7FCC3"/>
<path d="M25.3559 57.8521C25.2992 57.8453 25.2736 57.8191 25.2791 57.7735C25.2733 57.7273 25.3044 57.7079 25.3724 57.7159C25.9844 57.79 26.4954 57.9383 26.9054 58.1607C27.3154 58.3825 27.6115 58.6425 27.7939 58.9402C27.9762 59.2384 28.0494 59.5344 28.0137 59.8286C27.9352 60.4741 27.3249 60.8596 26.1826 60.9851L21.6326 61.5188C21.1189 61.5833 20.7412 61.7093 20.4997 61.8986C20.2483 62.0748 20.0923 62.4119 20.0317 62.9102C19.963 63.4765 20.1474 63.9926 20.5852 64.4596C21.013 64.9135 21.6365 65.2243 22.4555 65.3931L25.7365 65.7906C26.1784 65.8442 26.4998 65.8031 26.7003 65.6663C26.9023 65.5186 27.0303 65.2699 27.0843 64.9204C27.0912 64.8639 27.1173 64.8383 27.1626 64.8434C27.1966 64.848 27.2102 64.8782 27.2033 64.9346C27.163 65.1713 27.0858 65.7592 26.9716 66.699C26.8588 67.6273 26.7922 68.2221 26.7719 68.4844C26.765 68.5409 26.7446 68.5671 26.7106 68.5631C26.6652 68.5574 26.646 68.5261 26.6529 68.4696C26.6832 68.2204 26.6783 68.0248 26.6381 67.8822C26.5979 67.7391 26.497 67.6233 26.3353 67.535C26.1636 67.434 25.8964 67.361 25.5337 67.3171L21.0458 66.7725C20.6832 66.7286 20.41 66.7531 20.2262 66.8455C20.0438 66.9271 19.9361 67.1033 19.9031 67.3753C19.8976 67.4203 19.8965 67.5236 19.8999 67.6849C19.9058 67.7317 19.8966 67.7591 19.8726 67.7676C19.8386 67.7636 19.818 67.7442 19.8108 67.7089C19.6607 66.484 19.4365 65.5836 19.1386 65.0076C19.11 64.9586 19.1035 64.9175 19.119 64.8844C19.1358 64.8405 19.167 64.8217 19.2123 64.8269C19.7027 64.9557 20.0938 65.0487 20.3858 65.1074C20.6776 65.1656 21.0276 65.2198 21.4356 65.2694C20.8229 65.011 20.323 64.5828 19.9357 63.984C19.5498 63.3744 19.3961 62.7472 19.4745 62.1016C19.564 61.3654 19.788 60.8471 20.1466 60.546C20.5066 60.2335 21.0305 60.0385 21.7184 59.9609L26.1133 59.426C26.4516 59.3867 26.712 59.3262 26.8944 59.2447C27.0668 59.1506 27.1626 59.0246 27.1819 58.866C27.1956 58.7531 27.1421 58.626 27.0213 58.4846C26.9004 58.3437 26.7031 58.2165 26.4294 58.1025C26.1444 57.9879 25.7865 57.904 25.3559 57.8521Z" fill="#D7FCC3"/>
<path d="M28.9197 57.1172C28.7991 57.5334 28.54 57.8323 28.1426 58.0142C27.7484 58.1852 27.299 58.1972 26.7946 58.0512L21.416 56.4951C21.2625 56.4507 21.141 56.4393 21.0515 56.4609C20.9652 56.4715 20.8998 56.5535 20.8554 56.7069L20.6934 57.2654C20.6775 57.3202 20.6586 57.3447 20.6367 57.3384C20.6038 57.3287 20.5882 57.3002 20.5899 57.2535C20.6628 56.6334 20.5692 56.0542 20.3093 55.5159C20.0384 54.9744 19.6095 54.5475 19.0226 54.2352C18.9632 54.1942 18.9366 54.1628 18.943 54.1409C18.9525 54.108 18.9902 54.1011 19.0559 54.1202C19.7107 54.3215 20.3513 54.5306 20.9778 54.7475L21.0271 54.7618C21.1368 54.7935 21.216 54.7868 21.2648 54.7415C21.3136 54.6962 21.3602 54.597 21.4047 54.4436L21.862 52.8661C21.8684 52.8442 21.8864 52.8435 21.9161 52.864C21.9459 52.8844 21.9544 52.9165 21.9416 52.9604L21.5224 54.4064C21.4684 54.5926 21.4648 54.7281 21.5115 54.8129C21.5473 54.8945 21.6529 54.9607 21.8283 55.0115L26.8615 56.4679C27.2453 56.579 27.5707 56.584 27.8376 56.4832C28.0936 56.3792 28.2598 56.1957 28.336 55.9328C28.3932 55.7356 28.3877 55.5084 28.3196 55.2513C28.2438 54.9799 28.0974 54.706 27.8804 54.4295C27.8383 54.3698 27.8314 54.3322 27.8597 54.3166C27.877 54.2979 27.9083 54.3129 27.9536 54.3616C28.3939 54.8927 28.6939 55.3951 28.8537 55.8688C29.0026 56.3393 29.0245 56.7554 28.9197 57.1172Z" fill="#D7FCC3"/>
<path d="M31.2906 46.9968C31.2749 46.9767 31.2822 46.9613 31.3126 46.9504C31.3479 46.9293 31.3762 46.9364 31.3973 46.9716C31.7064 47.5979 31.8575 48.2376 31.8505 48.8907C31.8332 49.5389 31.6778 50.1722 31.3842 50.7904C31.0856 51.4189 30.6595 51.9302 30.106 52.3243C29.5524 52.7183 28.9264 52.9454 28.228 53.0057C27.5296 53.066 26.8298 52.9299 26.1285 52.5974C25.4064 52.2552 24.8374 51.7772 24.4213 51.1633C23.9998 50.5343 23.7635 49.8479 23.7124 49.1041C23.6511 48.3555 23.7843 47.636 24.1122 46.9456C24.4793 46.1728 24.9993 45.6367 25.6723 45.3371C26.3502 45.0273 27.0553 45.0459 27.7876 45.3931C28.1486 45.5642 28.4723 45.7871 28.7588 46.0618C28.3679 46.9116 27.5967 48.6415 26.4454 51.2517C27.1127 51.4165 27.7691 51.4311 28.4149 51.2954C29.0655 51.1493 29.6347 50.8953 30.1226 50.5333C30.6105 50.1712 30.9646 49.7584 31.1848 49.2947C31.591 48.4395 31.6263 47.6735 31.2906 46.9968ZM24.0962 47.6576C23.7732 48.3377 23.7323 48.9558 23.9736 49.512C24.2046 50.0633 24.7326 50.5345 25.5578 50.9257C25.8465 51.0626 26.109 51.1618 26.3452 51.2232L27.1496 49.3701C27.329 48.9124 27.6287 48.2149 28.0486 47.2778C27.9227 47.1172 27.736 46.9781 27.4885 46.8608C27.1275 46.6897 26.7121 46.6064 26.2424 46.611C25.7624 46.6107 25.3252 46.7064 24.9308 46.8981C24.531 47.0747 24.2529 47.3279 24.0962 47.6576Z" fill="#D7FCC3"/>
<path d="M35.3986 43.3663C35.7229 42.897 36.1247 42.6267 36.604 42.5554C37.0899 42.4746 37.5348 42.5735 37.9388 42.8521C38.277 43.0853 38.5128 43.3865 38.6462 43.7556C38.7796 44.1248 38.8129 44.5081 38.7464 44.9056C38.6863 45.2938 38.546 45.6474 38.3254 45.9666C37.9947 46.4452 37.6125 46.7776 37.1788 46.9635C36.7451 47.1496 36.3113 47.2454 35.8774 47.251C35.7936 47.7337 35.6122 48.1768 35.3334 48.5804C35.0221 49.031 34.6488 49.3002 34.2135 49.3881C33.7783 49.4759 33.368 49.387 32.9828 49.1214C32.2124 48.5902 31.9216 47.676 32.1104 46.3788C31.5736 46.6738 31.0078 46.8102 30.4127 46.788C29.8084 46.7592 29.229 46.5537 28.6747 46.1715C28.1016 45.7763 27.6774 45.2759 27.4022 44.6704C27.1241 44.049 27.0206 43.3957 27.0919 42.7103C27.1537 42.0185 27.3922 41.3722 27.8072 40.7715C28.0861 40.3679 28.4369 40.0208 28.8596 39.7302C28.2554 39.2997 27.9243 38.8152 27.8666 38.2764C27.8088 37.7377 27.9323 37.2477 28.2371 36.8066C28.3344 36.6658 28.4418 36.5805 28.5595 36.5508C28.6836 36.5116 28.7891 36.5497 28.8759 36.665L29.4856 37.4389C29.5848 37.5765 29.569 37.6696 29.4384 37.7181C29.1259 37.849 28.8789 38.0459 28.6973 38.3088C28.3341 38.8344 28.4506 39.2681 29.0468 39.6099C29.6124 39.2932 30.2133 39.1463 30.8494 39.1692C31.4856 39.1921 32.0902 39.4012 32.6634 39.7964C33.2083 40.1721 33.6151 40.6675 33.8838 41.2824C34.1432 41.8908 34.234 42.5424 34.1563 43.2371C34.085 43.9225 33.8419 44.5655 33.4268 45.1662C33.1025 45.6355 32.7005 46.0166 32.2208 46.3093C32.1535 46.748 32.1461 47.1102 32.1985 47.3957C32.2415 47.6748 32.4039 47.9115 32.6857 48.1059C32.9113 48.2614 33.1463 48.3126 33.391 48.2596C33.6516 48.2037 33.8597 48.0631 34.0153 47.8378C34.197 47.5751 34.3233 47.3019 34.3944 47.0183C34.4719 46.7253 34.5415 46.3436 34.6029 45.8733C34.6686 45.3365 34.7535 44.8823 34.8577 44.5107C34.959 44.1232 35.1393 43.7418 35.3986 43.3663ZM27.7583 41.4446C27.3628 42.0171 27.2177 42.5684 27.3231 43.0984C27.4285 43.6284 27.8007 44.1137 28.4396 44.5542C28.9751 44.9235 29.582 45.1896 30.2602 45.3524C30.929 45.5087 31.5558 45.5251 32.1404 45.4017C32.7222 45.2624 33.1655 44.9722 33.4703 44.531C33.8789 43.9397 34.0337 43.3743 33.9347 42.8349C33.8423 42.2861 33.4766 41.7915 32.8377 41.3509C32.321 40.9946 31.7217 40.7477 31.0399 40.6101C30.3552 40.4567 29.714 40.4511 29.1164 40.5933C28.5094 40.729 28.0566 41.0128 27.7583 41.4446ZM38.1583 45.7266C38.4502 45.3042 38.6002 44.9365 38.6084 44.6234C38.6231 44.301 38.466 44.0264 38.1372 43.7996C37.8929 43.6312 37.6405 43.5749 37.3799 43.6308C37.1258 43.6773 36.9047 43.8367 36.7167 44.1089C36.4768 44.4562 36.3097 44.7983 36.2156 45.1353C36.1373 45.4694 36.0704 45.8875 36.0148 46.3896C35.9777 46.7243 35.9452 46.9722 35.9173 47.133C36.3042 47.095 36.6943 46.9621 37.0875 46.7343C37.4966 46.5036 37.8535 46.1678 38.1583 45.7266Z" fill="#D7FCC3"/>
<path d="M34.008 33.4553C34.3243 33.1263 34.6833 32.9094 35.0849 32.8045C35.4944 32.6914 35.8144 32.7454 36.0449 32.9667C36.1025 33.022 36.1439 33.0695 36.1689 33.1093L37.5973 35.4763C37.6388 35.5319 37.6436 35.5681 37.6116 35.5848C37.5796 35.6016 37.5429 35.5822 37.5014 35.5266C37.2775 35.2327 37.0873 35.0106 36.9309 34.8605C36.4616 34.4102 36.005 34.1935 35.5613 34.2105C35.1172 34.2113 34.7173 34.3968 34.3614 34.767C33.9343 35.2112 33.8558 35.7209 34.1258 36.2962C34.4037 36.8633 34.8637 37.455 35.5059 38.0713L37.2226 39.7185C37.5437 40.0266 37.8255 40.1863 38.068 40.1976C38.3183 40.2006 38.5702 40.0786 38.8236 39.8315C38.8631 39.7904 38.8994 39.7856 38.9323 39.8172C38.957 39.8409 38.9496 39.8733 38.91 39.9145C38.7357 40.0793 38.3204 40.5031 37.664 41.1858C37.0155 41.8603 36.6044 42.296 36.4308 42.4931C36.3913 42.5342 36.3591 42.5429 36.3344 42.5192C36.3015 42.4876 36.3048 42.4513 36.3443 42.4101C36.5183 42.2291 36.6321 42.0696 36.6859 41.9314C36.7396 41.7932 36.7285 41.6401 36.6524 41.4723C36.576 41.2883 36.4061 41.0699 36.1427 40.8171L32.8822 37.6885C32.6187 37.4357 32.3857 37.2911 32.1831 37.2549C31.9884 37.2104 31.7962 37.2869 31.6064 37.4843C31.5748 37.5172 31.5118 37.5991 31.4176 37.7301C31.3942 37.7709 31.3702 37.7875 31.3459 37.7799C31.3212 37.7562 31.3166 37.7281 31.3321 37.6955C31.9484 36.6264 32.3107 35.7722 32.4189 35.1328C32.4258 35.0762 32.4453 35.0395 32.4772 35.0227C32.5171 34.9977 32.5535 35.001 32.5864 35.0326C32.9094 35.4375 33.1742 35.7548 33.3807 35.9846C33.5872 36.2143 33.8469 36.4793 34.1598 36.7795L34.3821 36.9928C33.9497 36.3724 33.6626 35.749 33.5208 35.1227C33.379 34.4964 33.5414 33.9406 34.008 33.4553Z" fill="#D7FCC3"/>
<path d="M45.6252 31.019C45.5909 30.9734 45.5875 30.9403 45.6148 30.9198C45.6445 30.8832 45.6799 30.8923 45.7211 30.947C46.0914 31.4394 46.3419 31.9147 46.4724 32.3731C46.5961 32.8223 46.6136 33.2158 46.5249 33.5535C46.4453 33.8843 46.2868 34.1388 46.0496 34.3169C45.5202 34.7143 44.8213 34.5256 43.953 33.7509L43.4285 33.31C43.6941 34.0237 43.7381 34.7182 43.5606 35.3935C43.3855 36.0529 43.0423 36.5745 42.5312 36.9581C42.0384 37.3281 41.5477 37.5396 41.0591 37.5925C40.5705 37.6454 40.1241 37.5739 39.7197 37.3782C39.3246 37.1755 38.9943 36.8884 38.7291 36.5169C38.3885 36.045 38.3492 35.4896 38.6111 34.8507C38.8732 34.2118 39.3555 33.6285 40.0583 33.101C40.6424 32.6625 41.2426 32.2833 41.8587 31.9634L40.5836 30.8662C40.1335 30.4766 39.7029 30.2649 39.2918 30.231C38.8809 30.1972 38.4289 30.3653 37.936 30.7353C37.3611 31.1669 36.994 31.7136 36.8348 32.3752C36.6687 33.0277 36.8258 33.7016 37.3059 34.3969C37.3447 34.4675 37.3459 34.5166 37.3094 34.544C37.2729 34.5714 37.2352 34.5497 37.1963 34.4791C36.8397 33.9479 36.6702 33.3904 36.6879 32.8064C36.7056 32.2225 36.8558 31.6817 37.1385 31.1843C37.4234 30.6707 37.7803 30.253 38.2093 29.931C38.9394 29.3828 39.5922 29.1211 40.1676 29.1456C40.7362 29.1611 41.3335 29.4331 41.9596 29.9617L45.041 32.6345C45.297 32.8418 45.5129 32.9864 45.6887 33.0684C45.8738 33.1435 46.0302 33.1331 46.158 33.0372C46.2492 32.9686 46.2994 32.8454 46.3083 32.6675C46.3264 32.4827 46.2817 32.2524 46.1741 31.9765C46.0688 31.6846 45.8859 31.3654 45.6252 31.019ZM43.0208 33.0811C42.943 32.9398 42.8687 32.8315 42.7979 32.7563L42.0987 32.1684C41.4688 32.4701 40.9485 32.7751 40.5378 33.0834C39.9445 33.5288 39.5852 33.934 39.46 34.2991C39.3279 34.655 39.4299 35.0564 39.766 35.5031C40.1089 35.959 40.5293 36.2426 41.0271 36.3539C41.5272 36.4492 42.042 36.2982 42.5713 35.9008C43.5752 35.1472 43.7251 34.2073 43.0208 33.0811Z" fill="#D7FCC3"/>
<path d="M49.0209 32.78C48.6368 32.9814 48.2414 33.0019 47.8349 32.8416C47.4384 32.6759 47.1181 32.3608 46.8741 31.8963L44.2718 26.9429C44.1975 26.8016 44.1216 26.7061 44.044 26.6566C43.9765 26.6018 43.8721 26.6116 43.7306 26.6858L43.215 26.9561C43.1645 26.9826 43.1339 26.9857 43.1233 26.9655C43.1073 26.9352 43.1169 26.9044 43.1521 26.8731C43.6502 26.496 44.0035 26.0274 44.2121 25.4673C44.4153 24.897 44.4264 24.2923 44.2453 23.653C44.2337 23.5818 44.238 23.541 44.2582 23.5304C44.2885 23.5144 44.3196 23.5368 44.3514 23.5974C44.6596 24.2086 44.9524 24.815 45.2299 25.4166L45.2537 25.4621C45.3068 25.5631 45.3665 25.6155 45.433 25.6192C45.4995 25.623 45.6034 25.5878 45.745 25.5136L47.2006 24.7504C47.2208 24.7398 47.2338 24.7523 47.2396 24.7879C47.2454 24.8235 47.2281 24.8519 47.1877 24.8731L45.8534 25.5727C45.6815 25.6628 45.5812 25.7541 45.5524 25.8465C45.5182 25.9288 45.5436 26.0507 45.6285 26.2123L48.0637 30.8475C48.2494 31.201 48.4711 31.4389 48.7288 31.5614C48.9813 31.6738 49.2288 31.6664 49.4714 31.5391C49.6533 31.4437 49.8136 31.2825 49.9521 31.0553C50.0954 30.8127 50.1917 30.5174 50.241 30.1696C50.2549 30.0979 50.2773 30.0668 50.3081 30.0765C50.3336 30.0759 50.3445 30.1089 50.3407 30.1753C50.2623 30.8604 50.1074 31.4246 49.8762 31.8679C49.6396 32.3011 49.3545 32.6051 49.0209 32.78Z" fill="#D7FCC3"/>
<path d="M55.2494 28.3308C55.3795 28.7203 55.5692 29.0177 55.8184 29.2232C56.0748 29.4142 56.3618 29.4627 56.6795 29.3688C56.7336 29.3508 56.7679 29.3634 56.7824 29.4066C56.7932 29.4391 56.7716 29.4644 56.7174 29.4824C56.5189 29.5366 55.954 29.719 55.0227 30.0296C54.0914 30.3402 53.5247 30.5352 53.3226 30.6146C53.2684 30.6327 53.236 30.6255 53.2251 30.5931C53.2107 30.5498 53.2305 30.5191 53.2846 30.501C53.9236 30.288 54.0912 29.7271 53.7875 28.8183L52.4155 24.7129C52.2998 24.3667 52.1607 24.1306 51.9982 24.0044C51.8465 23.8746 51.6408 23.8531 51.3809 23.9398C51.3375 23.9542 51.2437 23.9976 51.0993 24.0698C51.0596 24.095 51.0307 24.0986 51.0127 24.0806C51.0018 24.0482 51.0109 24.0211 51.0397 23.9995C52.0827 23.3389 52.8009 22.7508 53.1942 22.2348C53.2267 22.1879 53.2609 22.1645 53.297 22.1645C53.344 22.1608 53.3747 22.1806 53.3891 22.2239C53.4868 22.7324 53.5737 23.1363 53.6496 23.4356C53.7255 23.7349 53.8322 24.0901 53.9696 24.5012L55.2494 28.3308ZM51.6122 20.6343C51.3306 20.7282 51.0888 20.7427 50.8865 20.6779C50.6808 20.6022 50.5471 20.4725 50.4857 20.2886C50.4061 20.0505 50.4475 19.8143 50.6099 19.5798C50.7686 19.3345 51.0213 19.1541 51.3677 19.0385C51.6493 18.9445 51.893 18.9354 52.0988 19.0111C52.3118 19.0723 52.4509 19.2002 52.5159 19.395C52.5919 19.6222 52.545 19.8602 52.3755 20.1092C52.2131 20.3437 51.9587 20.5187 51.6122 20.6343Z" fill="#D7FCC3"/>
<path d="M61.1212 28.8011C60.3774 28.9218 59.6748 28.8684 59.0132 28.6407C58.3625 28.4112 57.8145 28.0265 57.3681 27.4866C56.9327 26.9448 56.6529 26.2912 56.5284 25.5257C56.4039 24.7602 56.481 24.0255 56.7597 23.3216C57.0385 22.6178 57.4857 22.0252 58.1016 21.544C58.7152 21.0515 59.4333 20.7384 60.2559 20.6049C61.011 20.4823 61.7194 20.5348 62.381 20.7625C63.0426 20.9902 63.5963 21.374 64.0426 21.9139C64.4987 22.4407 64.7887 23.0869 64.9131 23.8524C65.0381 24.6179 64.9559 25.3591 64.6677 26.076C64.3777 26.7817 63.9205 27.3818 63.2954 27.8761C62.6795 28.3574 61.9546 28.6657 61.1212 28.8011ZM61.8016 28.292C62.5562 28.1694 63.1134 27.8594 63.4718 27.3621C63.8303 26.8649 63.9422 26.1997 63.8063 25.3667C63.695 24.68 63.4085 23.9869 62.9478 23.2876C62.4986 22.5864 61.962 22.0264 61.3387 21.6076C60.7268 21.1871 60.1388 21.0225 59.5754 21.114C58.8317 21.2348 58.286 21.5429 57.9389 22.0383C57.5896 22.5225 57.4828 23.1811 57.6181 24.0142C57.7283 24.6896 58.0091 25.3835 58.4601 26.096C58.9207 26.7954 59.4527 27.3618 60.0549 27.7955C60.6674 28.2161 61.2491 28.3816 61.8016 28.292Z" fill="#D7FCC3"/>
<path d="M73.0678 25.3752C73.0678 25.3182 73.0906 25.2897 73.1363 25.2897C73.182 25.2783 73.2048 25.3068 73.2048 25.3752C73.2048 25.9911 73.1192 26.5157 72.9479 26.9491C72.7767 27.3825 72.5541 27.7076 72.2801 27.9243C72.0061 28.1409 71.7207 28.2493 71.4238 28.2493C70.7731 28.2493 70.3165 27.6905 70.0539 26.5728L68.975 22.1248C68.8495 21.623 68.6782 21.2638 68.4613 21.0471C68.2558 20.819 67.9019 20.7049 67.3996 20.7049C66.8288 20.7049 66.3379 20.9501 65.9269 21.4405C65.5273 21.9195 65.2933 22.5753 65.2248 23.4079V26.7096C65.2248 27.1544 65.3047 27.4681 65.4645 27.6505C65.6358 27.833 65.8984 27.93 66.2523 27.9414C66.3093 27.9414 66.3379 27.9642 66.3379 28.0098C66.3379 28.044 66.3093 28.0611 66.2523 28.0611C66.0125 28.0497 65.4189 28.044 64.4713 28.044C63.5352 28.044 62.9358 28.0497 62.6732 28.0611C62.6162 28.0611 62.5876 28.044 62.5876 28.0098C62.5876 27.9642 62.6162 27.9414 62.6732 27.9414C62.9244 27.9414 63.1185 27.9128 63.2555 27.8558C63.3925 27.7988 63.4952 27.6847 63.5637 27.5137C63.6436 27.3312 63.6836 27.0575 63.6836 26.6925V22.1762C63.6836 21.8112 63.6265 21.5432 63.5123 21.3721C63.4096 21.201 63.2212 21.1155 62.9472 21.1155C62.9016 21.1155 62.7988 21.1269 62.639 21.1497C62.5933 21.1611 62.5648 21.1554 62.5534 21.1326C62.5534 21.0984 62.5705 21.0756 62.6048 21.0642C63.8035 20.7676 64.6711 20.4369 65.2077 20.0719C65.2533 20.0377 65.2933 20.0263 65.3275 20.0377C65.3732 20.0491 65.396 20.0776 65.396 20.1233C65.3275 20.6251 65.2819 21.0243 65.259 21.3208C65.2362 21.6173 65.2248 21.9709 65.2248 22.3814C65.4075 21.7428 65.7728 21.1953 66.3208 20.7391C66.8802 20.2829 67.4852 20.0548 68.1359 20.0548C68.878 20.0548 69.4203 20.2145 69.7628 20.5338C70.1167 20.8532 70.3735 21.3493 70.5334 22.0222L71.5951 26.3162C71.675 26.6469 71.7663 26.8978 71.8691 27.0689C71.9832 27.2286 72.1202 27.3084 72.2801 27.3084C72.3942 27.3084 72.5141 27.24 72.6397 27.1031C72.7653 26.9662 72.868 26.7552 72.9479 26.4701C73.0278 26.1736 73.0678 25.8086 73.0678 25.3752Z" fill="#D7FCC3"/>
<path d="M80.856 27.5295C80.4228 27.385 80.11 27.1805 79.9176 26.9159C79.7252 26.6513 79.6744 26.3838 79.7646 26.1134C79.8851 25.7528 80.1859 25.5125 80.6677 25.3925C81.1551 25.2545 81.7145 25.2908 82.3464 25.5015C82.7791 25.6459 83.0919 25.8504 83.2848 26.115C83.4772 26.3796 83.528 26.6471 83.4378 26.9175C83.3174 27.2782 83.004 27.5245 82.4988 27.6565C81.9994 27.7705 81.4514 27.7281 80.856 27.5295Z" fill="#D7FCC3"/>
<path d="M97.634 37.1302C97.6682 37.0846 97.6991 37.0721 97.7265 37.0927C97.7539 37.1132 97.7504 37.1463 97.7162 37.1919C97.243 37.821 96.715 38.2664 96.1327 38.5282C95.5659 38.7877 95.0682 38.7564 94.6395 38.4344C94.3198 38.1946 94.1412 37.8819 94.1029 37.4965C94.0801 37.1086 94.2439 36.6823 94.5938 36.2173L94.9329 35.7659C94.3986 36.249 93.801 36.521 93.1411 36.582C92.4881 36.6339 91.8648 36.4371 91.2717 35.9918C90.6055 35.4916 90.2396 34.8674 90.174 34.1192C90.1152 33.3619 90.4155 32.5456 91.0736 31.6702L92.7404 29.4547C92.9596 29.1629 93.0749 28.9144 93.0869 28.7091C93.1074 28.5107 93.0081 28.3293 92.7895 28.1648C92.7529 28.1374 92.6639 28.0849 92.5223 28.0072C92.479 27.9889 92.4595 27.9672 92.4641 27.9421C92.4847 27.9148 92.5075 27.9034 92.5326 27.908C93.0007 28.1023 93.4779 28.275 93.9636 28.4259C94.45 28.5769 94.8655 28.6606 95.2103 28.6769C95.2765 28.6838 95.3199 28.702 95.3404 28.7317C95.361 28.7614 95.3576 28.7945 95.3302 28.831C94.9689 29.2161 94.6869 29.5249 94.4831 29.7574C94.2799 29.9899 94.051 30.2748 93.7975 30.6121L92.2952 32.6089C91.198 34.0677 91.1558 35.1774 92.169 35.9379C92.6799 36.3216 93.2404 36.4213 93.8506 36.2371C94.4694 36.0598 95.0533 35.6064 95.6019 34.877L97.1756 32.7845C97.3954 32.4927 97.5107 32.2442 97.5221 32.0389C97.5432 31.8405 97.4439 31.6591 97.2247 31.4946C97.1882 31.4672 97.0991 31.4146 96.9581 31.337C96.9148 31.3187 96.8954 31.297 96.8999 31.2719C96.9205 31.2446 96.9433 31.2332 96.9684 31.2378C97.4359 31.4321 97.9131 31.6048 98.3995 31.7558C98.8858 31.9067 99.3008 31.9904 99.6455 32.0067C99.7118 32.0136 99.7551 32.0319 99.7757 32.0615C99.7962 32.0912 99.7928 32.1243 99.7654 32.1608C99.4047 32.5459 99.1221 32.8547 98.9189 33.0872C98.7151 33.3197 98.4868 33.6046 98.2328 33.9419L96.0112 36.896C95.7845 37.1969 95.6487 37.4443 95.6025 37.6381C95.5728 37.8297 95.6401 37.9872 95.8045 38.1104C96.0871 38.3229 96.3691 38.3277 96.6505 38.1249C96.9405 37.929 97.2681 37.5974 97.634 37.1302Z" fill="#D7FCC3"/>
<path d="M99.8413 43.4954C99.8807 43.5365 99.8841 43.5729 99.851 43.6045C99.8265 43.6282 99.7945 43.6195 99.7551 43.5784C99.6444 43.4471 99.4115 43.1963 99.0553 42.8262L97.7624 41.4814C97.4068 41.1112 97.1653 40.8684 97.0386 40.7529C96.9987 40.7118 96.9912 40.6794 97.0164 40.6557C97.0489 40.6241 97.0854 40.6289 97.1248 40.67C97.2909 40.8427 97.4582 40.9509 97.6271 40.9947C97.7955 41.0384 97.9457 40.9971 98.0775 40.8706C98.2174 40.7363 98.327 40.5047 98.4063 40.1755L99.0724 37.1883L96.022 37.6956C95.6904 37.7454 95.45 37.8414 95.3016 37.9836C95.1698 38.11 95.1224 38.2583 95.1595 38.4284C95.2046 38.6068 95.3096 38.7823 95.4757 38.955C95.5157 38.9961 95.5185 39.0325 95.486 39.0641C95.4609 39.0878 95.4289 39.0791 95.3895 39.038C95.2714 38.8985 95.0339 38.6437 94.6783 38.2735L94.5242 38.1131C94.168 37.743 93.9231 37.4961 93.7878 37.3723C93.7484 37.3312 93.741 37.2988 93.7656 37.2751C93.7987 37.2435 93.8352 37.2483 93.8746 37.2894C94.1041 37.528 94.3512 37.662 94.6172 37.6915C94.8992 37.7214 95.3319 37.6938 95.9147 37.6088L99.1107 37.0802L99.7226 34.3581C99.8556 33.788 99.9121 33.3697 99.8933 33.1032C99.883 32.8287 99.7705 32.5804 99.5571 32.3584C99.5257 32.3255 99.5222 32.2971 99.5468 32.2735C99.5799 32.2419 99.6119 32.2425 99.6438 32.2754L100.308 32.9905L101.589 34.323L102.372 35.1131C102.412 35.1542 102.415 35.1906 102.382 35.2222C102.357 35.2459 102.325 35.2372 102.286 35.1961C102.096 34.9987 101.913 34.874 101.736 34.822C101.559 34.7701 101.401 34.8113 101.261 34.9456C101.13 35.072 101.024 35.2998 100.945 35.6289L100.412 38.0138L102.855 37.5911C103.187 37.5413 103.423 37.4493 103.563 37.315C103.695 37.1886 103.738 37.0362 103.693 36.8578C103.649 36.6794 103.535 36.4957 103.353 36.3065C103.306 36.2572 103.294 36.2206 103.319 36.1969C103.352 36.1653 103.392 36.1742 103.44 36.2235L104.186 37.025L104.352 37.1977L105.077 37.9262C105.116 37.9673 105.12 38.0037 105.087 38.0353C105.062 38.059 105.03 38.0503 104.99 38.0091C104.761 37.7706 104.505 37.6364 104.223 37.6065C103.957 37.5769 103.537 37.6088 102.962 37.7021L100.398 38.1224L99.6404 41.4587C99.516 42.0208 99.4589 42.4391 99.4697 42.7136C99.488 42.9962 99.6119 43.2568 99.8413 43.4954Z" fill="#D7FCC3"/>
<path d="M106.358 49.7035C106.163 49.2913 106.093 48.9243 106.151 48.6024C106.209 48.2804 106.366 48.0584 106.624 47.9362C106.968 47.7732 107.35 47.8235 107.771 48.0873C108.208 48.3429 108.569 48.7712 108.854 49.3722C109.05 49.7844 109.119 50.1514 109.062 50.4733C109.004 50.7952 108.846 51.0173 108.588 51.1395C108.244 51.3025 107.85 51.2476 107.404 50.9748C106.976 50.6939 106.627 50.2702 106.358 49.7035Z" fill="#D7FCC3"/>
<path d="M111.927 66.154C111.87 66.1494 111.843 66.1238 111.849 66.0776C111.856 66.0422 111.89 66.0319 111.949 66.0479C112.217 66.073 112.458 66.0724 112.673 66.0462C113.184 65.9846 113.662 65.8113 114.111 65.5273C114.56 65.2433 114.901 64.8857 115.136 64.4552C115.385 64.0344 115.479 63.5862 115.422 63.1106C115.231 61.5367 114.256 60.8564 112.5 61.0696C111.661 61.1712 110.93 61.4494 110.307 61.9045C109.685 62.3704 109.223 62.9207 108.921 63.5548C108.631 64.1986 108.522 64.8207 108.595 65.4206C108.639 65.7833 108.747 66.1488 108.918 66.5189C109.09 66.889 109.362 67.189 109.735 67.4194C109.775 67.4604 109.784 67.4884 109.763 67.502C109.743 67.5277 109.714 67.5311 109.678 67.5123C109.056 67.1285 108.581 66.6689 108.251 66.1346C107.921 65.6003 107.714 64.9821 107.628 64.2801C107.543 63.5782 107.628 62.907 107.884 62.2672C108.142 61.6388 108.549 61.1124 109.107 60.6887C109.665 60.2645 110.329 60.0061 111.1 59.9126C111.882 59.818 112.613 59.924 113.295 60.232C113.988 60.5387 114.56 60.9921 115.013 61.592C115.467 62.2033 115.74 62.8939 115.834 63.6637C115.894 64.1621 115.882 64.6286 115.797 65.0642C115.713 65.5107 115.579 65.8717 115.394 66.1471C115.21 66.4334 115.005 66.5908 114.778 66.6182C114.722 66.625 114.676 66.625 114.64 66.6176L111.927 66.154Z" fill="#D7FCC3"/>
<path d="M115.945 72.5303C115.926 72.986 115.801 73.3863 115.571 73.7307C115.339 74.0865 115.064 74.2582 114.744 74.2456C114.664 74.2422 114.602 74.2342 114.557 74.2205L111.916 73.3954C111.848 73.3811 111.821 73.3572 111.834 73.3235C111.846 73.2899 111.887 73.2802 111.955 73.2945C112.318 73.3657 112.607 73.4062 112.824 73.4148C113.474 73.441 113.96 73.3007 114.281 72.9939C114.612 72.6991 114.789 72.2954 114.809 71.7827C114.834 71.1674 114.555 70.7335 113.971 70.482C113.386 70.2414 112.649 70.1034 111.759 70.0674L109.381 69.9716C108.936 69.9539 108.619 70.0212 108.43 70.1729C108.241 70.3366 108.133 70.5949 108.108 70.9479C108.106 71.0049 108.082 71.0323 108.036 71.0306C108.002 71.0289 107.986 70.9998 107.988 70.9428C108.009 70.7038 108.038 70.1119 108.076 69.1659C108.114 68.2312 108.133 67.633 108.132 67.3702C108.134 67.3131 108.152 67.2858 108.187 67.2869C108.232 67.2886 108.254 67.3183 108.252 67.3753C108.241 67.6262 108.263 67.8207 108.314 67.9598C108.365 68.0989 108.475 68.2061 108.644 68.2814C108.823 68.3687 109.095 68.4194 109.46 68.4342L113.978 68.6161C114.342 68.6304 114.613 68.5842 114.788 68.4776C114.963 68.3818 115.057 68.197 115.068 67.9233C115.07 67.8782 115.062 67.775 115.046 67.6142C115.036 67.5686 115.043 67.5401 115.067 67.5298C115.101 67.531 115.123 67.5492 115.133 67.584C115.381 68.7924 115.677 69.6717 116.021 70.222C116.053 70.2687 116.063 70.3092 116.05 70.3429C116.037 70.3879 116.007 70.4096 115.962 70.4079C115.451 70.3189 115.042 70.2567 114.735 70.2214C114.428 70.1866 114.058 70.1598 113.624 70.1427L113.317 70.1302C114.052 70.3081 114.681 70.5846 115.203 70.9593C115.724 71.3345 115.971 71.858 115.945 72.5303Z" fill="#D7FCC3"/>
<path d="M107.929 80.7357C107.949 80.7516 107.945 80.7682 107.918 80.7864C107.889 80.8149 107.86 80.8149 107.831 80.7858C107.381 80.2515 107.081 79.6665 106.931 79.0306C106.793 78.3971 106.792 77.7453 106.929 77.0747C107.068 76.3932 107.36 75.795 107.802 75.2801C108.246 74.7652 108.799 74.3951 109.463 74.1693C110.126 73.944 110.839 73.9087 111.599 74.0638C112.382 74.2234 113.049 74.5519 113.6 75.048C114.16 75.5584 114.554 76.168 114.782 76.8779C115.021 77.5902 115.064 78.3207 114.911 79.0694C114.74 79.9077 114.363 80.5526 113.781 81.0043C113.197 81.4673 112.508 81.6173 111.714 81.4553C111.323 81.3755 110.955 81.2369 110.611 81.0385C110.787 80.1198 111.121 78.2557 111.614 75.446C110.927 75.4455 110.286 75.5886 109.691 75.8749C109.094 76.172 108.603 76.5546 108.216 77.0228C107.829 77.491 107.584 77.9768 107.481 78.4798C107.292 79.407 107.441 80.1591 107.929 80.7357ZM114.756 78.3743C114.906 77.6369 114.798 77.0268 114.431 76.5443C114.074 76.0642 113.448 75.7329 112.554 75.5504C112.241 75.4865 111.962 75.4535 111.718 75.45L111.381 77.4413C111.316 77.9289 111.193 78.6776 111.009 79.6881C111.17 79.8141 111.384 79.9042 111.653 79.959C112.044 80.0388 112.468 80.0206 112.923 79.9037C113.389 79.7891 113.79 79.5918 114.127 79.3112C114.473 79.0443 114.683 78.7318 114.756 78.3743Z" fill="#D7FCC3"/>
<path d="M106.158 88.4938C106.211 88.5144 106.232 88.5406 106.22 88.5725C106.214 88.6193 106.179 88.6301 106.115 88.6062C105.539 88.3878 105.073 88.1197 104.717 87.8021C104.372 87.4885 104.147 87.1651 104.041 86.8321C103.932 86.5099 103.93 86.2106 104.035 85.9334C104.27 85.3147 104.961 85.1009 106.109 85.2925L106.789 85.3848C106.183 84.9235 105.774 84.3601 105.563 83.6946C105.358 83.0434 105.369 82.4195 105.595 81.8225C105.814 81.2465 106.116 80.8057 106.5 80.5001C106.885 80.1944 107.3 80.0165 107.747 79.9663C108.19 79.9264 108.622 79.9926 109.045 80.1654C109.585 80.3821 109.916 80.8308 110.036 81.5106C110.157 82.1903 110.061 82.9407 109.749 83.7619C109.49 84.4445 109.186 85.0855 108.836 85.6848L110.501 85.9311C111.09 86.0201 111.567 85.9693 111.932 85.7783C112.298 85.5878 112.59 85.2041 112.809 84.6281C113.064 83.9564 113.081 83.2983 112.862 82.6545C112.653 82.0141 112.16 81.5283 111.382 81.1969C111.311 81.1582 111.284 81.1171 111.3 81.0749C111.316 81.0321 111.36 81.0304 111.431 81.0692C112.016 81.3275 112.458 81.7084 112.755 82.2114C113.053 82.7144 113.215 83.2515 113.242 83.8229C113.276 84.4091 113.198 84.9526 113.008 85.4538C112.684 86.3069 112.272 86.8772 111.773 87.1634C111.284 87.4537 110.634 87.5432 109.821 87.4303L105.788 86.8167C105.46 86.778 105.2 86.7711 105.008 86.7956C104.811 86.831 104.685 86.9234 104.628 87.0728C104.587 87.1794 104.611 87.3106 104.698 87.4657C104.782 87.631 104.943 87.8021 105.182 87.9778C105.427 88.1682 105.752 88.3404 106.158 88.4938ZM107.256 85.3603C107.397 85.4384 107.518 85.4903 107.618 85.516L108.523 85.6397C108.894 85.0484 109.171 84.5129 109.353 84.0328C109.617 83.3399 109.703 82.8056 109.614 82.4298C109.535 82.0586 109.234 81.774 108.711 81.5756C108.178 81.3737 107.67 81.3583 107.19 81.53C106.716 81.7164 106.362 82.119 106.127 82.7372C105.682 83.9102 106.058 84.7849 107.256 85.3603Z" fill="#D7FCC3"/>
<path d="M102.346 88.8189C102.562 88.4437 102.885 88.215 103.315 88.1335C103.739 88.0616 104.178 88.1574 104.633 88.4197L109.482 91.2168C109.621 91.2966 109.736 91.3365 109.828 91.3371C109.915 91.3474 109.997 91.2829 110.077 91.1449L110.368 90.6414C110.397 90.5918 110.421 90.573 110.441 90.5844C110.47 90.6015 110.479 90.6323 110.466 90.6779C110.247 91.2624 110.199 91.8469 110.322 92.432C110.456 93.0222 110.77 93.5394 111.265 93.9831C111.313 94.0367 111.331 94.0737 111.32 94.0937C111.303 94.1233 111.264 94.1211 111.205 94.0868C110.617 93.7344 110.046 93.3786 109.489 93.0182L109.445 92.9925C109.346 92.9355 109.267 92.923 109.209 92.9555C109.151 92.9874 109.082 93.0729 109.002 93.2109L108.18 94.6331C108.168 94.6531 108.151 94.6497 108.127 94.6223C108.103 94.5955 108.102 94.5624 108.125 94.5231L108.878 93.2189C108.976 93.0513 109.011 92.9207 108.987 92.8272C108.972 92.7394 108.885 92.6498 108.727 92.5586L104.189 89.9412C103.843 89.7416 103.528 89.6589 103.245 89.6931C102.971 89.7324 102.766 89.871 102.629 90.1082C102.526 90.2862 102.477 90.508 102.481 90.7737C102.49 91.0554 102.566 91.3565 102.711 91.6764C102.738 91.7448 102.735 91.783 102.704 91.791C102.683 91.8053 102.656 91.783 102.623 91.7249C102.323 91.1039 102.153 90.5445 102.111 90.0466C102.079 89.554 102.157 89.1445 102.346 88.8189Z" fill="#D7FCC3"/>
<path d="M99.4617 95.9049C99.1432 95.6455 98.8241 95.4949 98.5033 95.4544C98.1843 95.4299 97.916 95.5423 97.6979 95.7915C97.6614 95.8354 97.626 95.8428 97.5906 95.8143C97.5638 95.7926 97.5689 95.7595 97.6049 95.7156C97.7436 95.5639 98.1238 95.1077 98.7442 94.3482C99.3653 93.5886 99.7403 93.121 99.8682 92.9459C99.9047 92.902 99.9361 92.8906 99.9623 92.9123C99.9977 92.9408 99.9972 92.9773 99.9612 93.0218C99.5354 93.543 99.6935 94.1064 100.437 94.7126L103.793 97.4497C104.076 97.6807 104.319 97.8056 104.524 97.8255C104.722 97.8546 104.907 97.7628 105.081 97.5507C105.109 97.5153 105.165 97.4286 105.249 97.2906C105.269 97.2479 105.291 97.2296 105.317 97.2353C105.343 97.257 105.35 97.2844 105.337 97.318C104.809 98.4334 104.516 99.3139 104.46 99.96C104.458 100.017 104.442 100.055 104.411 100.074C104.373 100.103 104.337 100.102 104.301 100.073C103.947 99.6954 103.657 99.4006 103.433 99.1884C103.209 98.9757 102.928 98.7322 102.592 98.4585L99.4617 95.9049ZM106.653 100.468C106.841 100.238 107.038 100.097 107.244 100.044C107.458 99.9976 107.64 100.036 107.791 100.158C107.985 100.318 108.076 100.539 108.065 100.824C108.062 101.116 107.945 101.403 107.714 101.686C107.526 101.916 107.325 102.054 107.111 102.1C106.898 102.162 106.712 102.128 106.552 101.998C106.367 101.846 106.279 101.621 106.289 101.319C106.301 101.034 106.422 100.751 106.653 100.468Z" fill="#D7FCC3"/>
<path d="M96.3331 107.47C96.2989 107.5 96.2669 107.498 96.2366 107.464C96.2138 107.438 96.2195 107.41 96.2538 107.38C96.4244 107.229 96.5055 107.028 96.4964 106.777C96.4787 106.533 96.3811 106.148 96.203 105.62L94.3461 100.018C94.3101 99.9428 94.2605 99.8955 94.1971 99.8755L93.9728 99.7769C93.894 99.7398 93.8729 99.6822 93.91 99.6035L94.5111 98.5007C94.5202 98.4773 94.5379 98.4539 94.5636 98.4311C94.6064 98.3934 94.6589 98.3929 94.7211 98.4288L100.984 101.388C101.503 101.63 101.879 101.77 102.111 101.808C102.351 101.855 102.56 101.799 102.739 101.64C102.765 101.617 102.79 101.619 102.812 101.644C102.843 101.679 102.845 101.707 102.819 101.729L102.256 102.204L100.962 103.351L100.012 104.214C99.9606 104.26 99.9201 104.265 99.8899 104.231C99.867 104.205 99.8813 104.17 99.9327 104.124C100.48 103.64 100.594 103.219 100.276 102.861C100.17 102.741 99.9915 102.617 99.7403 102.489L94.6686 100.098C94.6138 100.071 94.5739 100.06 94.5493 100.067C94.5236 100.089 94.5208 100.137 94.5407 100.211L96.3051 105.529C96.4022 105.794 96.5038 105.986 96.6099 106.105C96.9279 106.464 97.352 106.408 97.8817 105.94C97.9331 105.894 97.9702 105.884 97.9925 105.91C98.0227 105.944 98.0124 105.984 97.9611 106.029L97.0141 106.845L96.8605 106.981L96.3331 107.47Z" fill="#D7FCC3"/>
<path d="M86.7012 106.066C86.704 106.092 86.6892 106.101 86.6578 106.094C86.6167 106.092 86.5967 106.072 86.5979 106.03C86.6715 105.336 86.8861 104.715 87.2412 104.167C87.6025 103.628 88.0728 103.176 88.6517 102.81C89.2402 102.438 89.8738 102.234 90.5525 102.196C91.2312 102.159 91.8819 102.301 92.5047 102.623C93.1268 102.945 93.6457 103.433 94.0607 104.089C94.4877 104.764 94.7131 105.471 94.736 106.213C94.756 106.969 94.5887 107.675 94.2337 108.331C93.8849 108.997 93.3877 109.534 92.741 109.942C92.0172 110.4 91.2911 110.575 90.5622 110.469C89.823 110.369 89.2373 109.976 88.8041 109.292C88.5906 108.955 88.4359 108.594 88.3411 108.208C89.126 107.699 90.7032 106.648 93.0726 105.057C92.5971 104.561 92.0497 104.199 91.4315 103.969C90.8036 103.745 90.1866 103.655 89.5804 103.701C88.9742 103.746 88.4541 103.906 88.0203 104.18C87.2195 104.687 86.7794 105.315 86.7012 106.066ZM93.1354 109.349C93.7724 108.947 94.1378 108.446 94.2314 107.847C94.3307 107.258 94.1366 106.578 93.6486 105.807C93.4779 105.536 93.3089 105.313 93.1423 105.134L91.4709 106.272C91.0742 106.562 90.448 106.992 89.5918 107.56C89.6123 107.763 89.6957 107.98 89.8418 108.211C90.0559 108.548 90.3624 108.841 90.7614 109.088C91.1672 109.345 91.5879 109.497 92.024 109.545C92.4561 109.61 92.8266 109.544 93.1354 109.349Z" fill="#D7FCC3"/>
<path d="M78.2479 110.254C78.6915 110.145 79.0648 110.151 79.369 110.272C79.6733 110.393 79.8594 110.592 79.9279 110.868C80.0192 111.238 79.893 111.602 79.5506 111.96C79.2121 112.337 78.72 112.605 78.0733 112.764C77.6298 112.873 77.2564 112.868 76.9522 112.747C76.648 112.626 76.4619 112.427 76.3934 112.15C76.302 111.781 76.435 111.405 76.7918 111.024C77.1526 110.661 77.6383 110.405 78.2479 110.254Z" fill="#D7FCC3"/>
</svg>
