<svg width="2212" height="1071" viewBox="0 0 2212 1071" fill="none" xmlns="http://www.w3.org/2000/svg">
<g clip-path="url(#clip0_211_164)">
<rect x="-996" width="4102" height="1071" fill="#EF852C"/>
<path d="M849.955 552.214V589.7H818V482.3H849.955V508.287C852.561 498.935 856.699 491.882 862.37 487.129C868.194 482.376 874.171 480 880.302 480C887.352 480 893.482 481.303 898.693 483.91L892.946 512.657C888.501 510.511 883.06 509.437 876.623 509.437C858.845 509.437 849.955 523.696 849.955 552.214Z" fill="white"/>
<path d="M962.613 560.263C969.51 560.263 975.258 558.04 979.856 553.593C984.607 548.994 986.982 543.014 986.982 535.655C986.982 528.602 984.607 522.776 979.856 518.177C975.104 513.577 969.357 511.277 962.613 511.277C955.87 511.277 950.122 513.577 945.371 518.177C940.773 522.776 938.474 528.602 938.474 535.655C938.474 543.014 940.773 548.994 945.371 553.593C950.122 558.04 955.87 560.263 962.613 560.263ZM1002.16 576.131C991.427 586.404 978.246 591.54 962.613 591.54C946.98 591.54 933.8 586.404 923.071 576.131C912.343 565.706 906.979 552.214 906.979 535.655C906.979 519.097 912.343 505.681 923.071 495.409C933.8 485.136 946.98 480 962.613 480C978.246 480 991.427 485.136 1002.16 495.409C1013.04 505.681 1018.48 519.097 1018.48 535.655C1018.48 552.214 1013.04 565.706 1002.16 576.131Z" fill="white"/>
<path d="M1070.41 589.7L1025.12 482.3H1059.14L1084.2 548.994L1109.03 482.3H1143.28L1097.76 589.7H1070.41Z" fill="white"/>
<path d="M1231.74 554.283L1254.96 570.152C1245.15 584.717 1228.83 592 1205.99 592C1190.2 592 1176.87 586.787 1165.99 576.361C1155.26 565.782 1149.9 552.214 1149.9 535.655C1149.9 519.097 1155.26 505.681 1165.99 495.409C1176.87 485.136 1190.2 480 1205.99 480C1221.62 480 1234.65 485.29 1245.07 495.869C1255.65 506.294 1260.94 519.863 1260.94 536.575C1260.94 539.488 1260.78 542.784 1260.48 546.464H1181.85C1182.62 552.29 1185.61 556.736 1190.82 559.803C1196.18 562.869 1202.01 564.402 1208.29 564.402C1218.71 564.402 1226.53 561.029 1231.74 554.283ZM1182.31 526.456H1228.75C1227.98 520.476 1225.3 515.953 1220.7 512.887C1216.26 509.667 1211.43 508.057 1206.22 508.057C1201.01 508.057 1196.03 509.591 1191.28 512.657C1186.53 515.723 1183.54 520.323 1182.31 526.456Z" fill="white"/>
<path d="M1362.27 589.7V577.511C1359.21 582.111 1354.46 585.637 1348.02 588.09C1341.74 590.543 1336.07 591.77 1331.01 591.77C1316.6 591.77 1303.88 586.634 1292.85 576.361C1281.81 565.936 1276.29 552.444 1276.29 535.885C1276.29 519.326 1281.81 505.911 1292.85 495.639C1303.88 485.213 1316.6 480 1331.01 480C1336.07 480 1341.58 481.073 1347.56 483.22C1353.69 485.366 1358.6 489.046 1362.27 494.259V482.3H1394V589.7H1362.27ZM1317.44 517.717C1312.08 522.47 1309.4 528.526 1309.4 535.885C1309.4 543.244 1312.08 549.377 1317.44 554.283C1322.96 559.036 1329.25 561.413 1336.3 561.413C1343.19 561.413 1349.25 559.113 1354.46 554.513C1359.67 549.76 1362.27 543.551 1362.27 535.885C1362.27 528.219 1359.67 522.086 1354.46 517.487C1349.25 512.734 1343.19 510.357 1336.3 510.357C1329.25 510.357 1322.96 512.81 1317.44 517.717Z" fill="white"/>
</g>
<defs>
<clipPath id="clip0_211_164">
<rect width="2212" height="1071" fill="white"/>
</clipPath>
</defs>
</svg>
