<svg width="1927" height="1080" viewBox="0 0 1927 1080" fill="none" xmlns="http://www.w3.org/2000/svg">
<g clip-path="url(#clip0_1033_6892)">
<rect width="1927" height="1080" fill="#F4F5F6"/>
<g filter="url(#filter0_bd_1033_6892)">
<path d="M683.5 -535.739C755.59 -577.36 844.41 -577.36 916.5 -535.739L1673.37 -98.7613C1745.46 -57.1399 1789.87 19.7797 1789.87 103.023V976.977C1789.87 1060.22 1745.46 1137.14 1673.37 1178.76L916.5 1615.74C844.41 1657.36 755.59 1657.36 683.5 1615.74L-73.3671 1178.76C-145.458 1137.14 -189.867 1060.22 -189.867 976.977V103.023C-189.867 19.7797 -145.458 -57.1399 -73.3671 -98.7613L683.5 -535.739Z" fill="#F4F5F6" fill-opacity="0.8" shape-rendering="crispEdges"/>
</g>
<g filter="url(#filter1_bd_1033_6892)">
<path d="M404.5 -353.739C476.59 -395.36 565.41 -395.36 637.5 -353.739L1236.75 -7.76132C1308.84 33.8601 1353.25 110.78 1353.25 194.023V885.977C1353.25 969.22 1308.84 1046.14 1236.75 1087.76L637.5 1433.74C565.41 1475.36 476.59 1475.36 404.5 1433.74L-194.75 1087.76C-266.841 1046.14 -311.25 969.22 -311.25 885.977V194.023C-311.25 110.78 -266.841 33.8601 -194.75 -7.76132L404.5 -353.739Z" fill="#F4F5F6" fill-opacity="0.8" shape-rendering="crispEdges"/>
</g>
<g filter="url(#filter2_bd_1033_6892)">
<path d="M428.5 -98.7387C500.59 -140.36 589.41 -140.36 661.5 -98.7387L1039.91 119.739C1112 161.36 1156.41 238.28 1156.41 321.523V758.477C1156.41 841.72 1112 918.64 1039.91 960.261L661.5 1178.74C589.41 1220.36 500.59 1220.36 428.5 1178.74L50.086 960.261C-22.0044 918.64 -66.4139 841.72 -66.4139 758.477V321.523C-66.4139 238.28 -22.0044 161.36 50.0861 119.739L428.5 -98.7387Z" fill="#F4F5F6" fill-opacity="0.8" shape-rendering="crispEdges"/>
</g>
<g filter="url(#filter3_f_1033_6892)">
<circle cx="781" cy="410" r="260" fill="url(#paint0_linear_1033_6892)"/>
</g>
<g filter="url(#filter4_bd_1033_6892)">
<path d="M463.5 63.054C513.932 33.9369 576.068 33.9369 626.5 63.054L917.297 230.946C967.73 260.063 998.797 313.874 998.797 372.108V707.892C998.797 766.126 967.73 819.937 917.297 849.054L626.5 1016.95C576.068 1046.06 513.932 1046.06 463.5 1016.95L172.703 849.054C122.27 819.937 91.2027 766.126 91.2027 707.892V372.108C91.2027 313.874 122.27 260.063 172.703 230.946L463.5 63.054Z" fill="#F4F5F6" fill-opacity="0.8" shape-rendering="crispEdges"/>
</g>
<g filter="url(#filter5_f_1033_6892)">
<circle cx="355" cy="584" r="230" fill="url(#paint1_linear_1033_6892)"/>
</g>
<g filter="url(#filter6_bd_1033_6892)">
<path d="M455.5 187.054C505.932 157.937 568.068 157.937 618.5 187.054L803.642 293.946C854.075 323.063 885.142 376.874 885.142 435.108V648.892C885.142 707.126 854.075 760.937 803.642 790.054L618.5 896.946C568.068 926.063 505.932 926.063 455.5 896.946L270.358 790.054C219.925 760.937 188.858 707.126 188.858 648.892V435.108C188.858 376.874 219.925 323.063 270.358 293.946L455.5 187.054Z" fill="#F4F5F6" fill-opacity="0.8" shape-rendering="crispEdges"/>
</g>
<mask id="mask0_1033_6892" style="mask-type:alpha" maskUnits="userSpaceOnUse" x="329" y="258" width="812" height="576">
<rect x="548.385" y="392.913" width="107.826" height="23.3978" rx="10" transform="rotate(90 548.385 392.913)" fill="url(#paint2_linear_1033_6892)"/>
<rect x="548.385" y="588.85" width="107.826" height="23.3242" rx="10" transform="rotate(90 548.385 588.85)" fill="url(#paint3_linear_1033_6892)"/>
<rect x="492.541" y="558.049" width="107.292" height="23.4404" rx="10" transform="rotate(180 492.541 558.049)" fill="url(#paint4_linear_1033_6892)"/>
<rect x="690.806" y="558.049" width="107.292" height="23.4404" rx="10" transform="rotate(180 690.806 558.049)" fill="url(#paint5_linear_1033_6892)"/>
<path fill-rule="evenodd" clip-rule="evenodd" d="M645.507 546.047C645.507 606.429 596.759 655.42 536.676 655.42C476.593 655.42 427.845 606.429 427.845 546.047C427.845 485.664 476.546 436.674 536.676 436.674C596.759 436.674 645.507 485.618 645.507 546.047ZM333.988 753.94C333.957 753.924 333.928 753.905 333.902 753.882C330.989 751.353 329.415 747.899 329.137 744.353C328.857 740.743 329.977 736.945 332.496 733.898C335.015 730.851 338.513 729.21 342.058 728.929H342.105C345.697 728.694 349.429 729.773 352.461 732.304C380.777 756.682 410.865 775.153 441.84 787.436C472.861 799.766 504.815 805.86 536.816 805.532C568.49 805.298 600.351 798.734 631.652 785.748C662.16 773.044 692.155 754.198 720.844 728.976C723.783 726.444 727.468 725.272 731.06 725.553C734.652 725.788 738.198 727.382 740.81 730.288L740.903 730.382C743.422 733.289 744.495 736.992 744.262 740.602C744.029 744.212 742.396 747.775 739.504 750.4C708.156 777.872 675.409 798.406 641.915 812.236C607.442 826.488 572.176 833.66 537.049 833.989C501.456 834.317 466.097 827.566 431.857 814.111C397.818 800.662 364.898 780.562 334.075 753.997C334.048 753.975 334.019 753.955 333.988 753.94ZM392.952 689.83C390.06 687.205 388.427 683.642 388.24 679.985C388.007 676.375 389.22 672.625 391.786 669.718C394.398 666.812 397.943 665.171 401.582 664.983C405.174 664.749 408.906 665.921 411.798 668.546L411.845 668.593C432.277 686.783 453.175 700.472 474.214 709.52C495.206 718.521 516.384 722.928 537.562 722.6C558.368 722.272 579.359 717.302 600.211 707.457C620.763 697.81 641.268 683.436 661.493 664.244C661.534 664.206 661.577 664.171 661.623 664.14C661.67 664.108 661.715 664.073 661.756 664.034C664.546 661.403 668.111 660.203 671.63 660.342C675.222 660.483 678.814 661.983 681.473 664.749L681.66 664.937C684.319 667.749 685.531 671.359 685.438 674.922C685.345 678.532 683.805 682.142 681.053 684.861L681.006 684.908C658.149 706.567 634.778 722.741 611.127 733.664L610.987 733.711C586.87 744.868 562.426 750.541 537.982 750.963C513.212 751.385 488.581 746.368 464.371 736.148C440.596 726.081 417.187 710.917 394.505 690.884C394.039 690.473 393.428 690.229 392.952 689.83ZM411.845 423.547C411.689 423.641 411.544 423.75 411.406 423.867C408.546 426.321 404.951 427.433 401.489 427.204C397.897 426.97 394.305 425.376 391.693 422.469C389.08 419.563 387.914 415.859 388.101 412.249C388.334 408.639 389.92 405.03 392.812 402.404C415.996 381.824 439.88 366.259 464.184 355.945C488.348 345.725 512.932 340.662 537.656 341.084C562.099 341.506 586.59 347.226 610.8 358.383L610.94 358.43C634.545 369.353 657.915 385.527 680.68 407.092L680.82 407.233C683.572 409.952 685.018 413.562 685.158 417.172C685.251 420.781 683.992 424.438 681.286 427.251C678.581 430.111 674.942 431.611 671.35 431.705C667.758 431.798 664.12 430.533 661.321 427.814C640.982 408.639 620.41 394.247 599.838 384.543C578.986 374.745 558.041 369.728 537.329 369.353C516.197 369.025 495.019 373.479 474.12 382.48C453.454 391.335 432.97 404.682 412.985 422.205C412.544 422.592 412.302 423.18 411.845 423.547ZM352.461 359.696L352.321 359.836C349.336 362.321 345.65 363.399 342.058 363.165C338.467 362.884 335.015 361.243 332.496 358.289L332.309 358.055C329.837 355.055 328.764 351.351 329.044 347.741C329.323 344.131 331.003 340.615 333.988 338.084C364.87 311.502 397.803 291.344 431.857 277.936C466.05 264.434 501.41 257.683 537.003 258.011C572.176 258.386 607.442 265.512 641.915 279.764C675.409 293.641 708.203 314.128 739.457 341.6C742.349 344.131 743.982 347.647 744.215 351.304C744.448 354.914 743.329 358.664 740.81 361.665L740.763 361.712C738.244 364.618 734.746 366.259 731.107 366.494C727.515 366.728 723.783 365.603 720.798 363.071L720.751 363.024C692.109 337.849 662.16 318.956 631.652 306.299C600.351 293.313 568.49 286.749 536.816 286.515C504.675 286.281 472.674 292.422 441.606 304.705C410.678 316.987 380.73 335.412 352.461 359.696ZM623.396 546.047C623.396 594.193 584.584 633.198 536.676 633.198C488.768 633.198 449.956 594.193 449.956 546.047C449.956 497.9 488.768 458.896 536.676 458.896C584.584 458.896 623.396 497.9 623.396 546.047Z" fill="url(#paint6_linear_1033_6892)"/>
<path fill-rule="evenodd" clip-rule="evenodd" d="M645.507 546.047C645.507 606.429 596.759 655.42 536.676 655.42C476.593 655.42 427.845 606.429 427.845 546.047C427.845 485.664 476.546 436.674 536.676 436.674C596.759 436.674 645.507 485.618 645.507 546.047ZM333.988 753.94C333.957 753.924 333.928 753.905 333.902 753.882C330.989 751.353 329.415 747.899 329.137 744.353C328.857 740.743 329.977 736.945 332.496 733.898C335.015 730.851 338.513 729.21 342.058 728.929H342.105C345.697 728.694 349.429 729.773 352.461 732.304C380.777 756.682 410.865 775.153 441.84 787.436C472.861 799.766 504.815 805.86 536.816 805.532C568.49 805.298 600.351 798.734 631.652 785.748C662.16 773.044 692.155 754.198 720.844 728.976C723.783 726.444 727.468 725.272 731.06 725.553C734.652 725.788 738.198 727.382 740.81 730.288L740.903 730.382C743.422 733.289 744.495 736.992 744.262 740.602C744.029 744.212 742.396 747.775 739.504 750.4C708.156 777.872 675.409 798.406 641.915 812.236C607.442 826.488 572.176 833.66 537.049 833.989C501.456 834.317 466.097 827.566 431.857 814.111C397.818 800.662 364.898 780.562 334.075 753.997C334.048 753.975 334.019 753.955 333.988 753.94ZM392.952 689.83C390.06 687.205 388.427 683.642 388.24 679.985C388.007 676.375 389.22 672.625 391.786 669.718C394.398 666.812 397.943 665.171 401.582 664.983C405.174 664.749 408.906 665.921 411.798 668.546L411.845 668.593C432.277 686.783 453.175 700.472 474.214 709.52C495.206 718.521 516.384 722.928 537.562 722.6C558.368 722.272 579.359 717.302 600.211 707.457C620.763 697.81 641.268 683.436 661.493 664.244C661.534 664.206 661.577 664.171 661.623 664.14C661.67 664.108 661.715 664.073 661.756 664.034C664.546 661.403 668.111 660.203 671.63 660.342C675.222 660.483 678.814 661.983 681.473 664.749L681.66 664.937C684.319 667.749 685.531 671.359 685.438 674.922C685.345 678.532 683.805 682.142 681.053 684.861L681.006 684.908C658.149 706.567 634.778 722.741 611.127 733.664L610.987 733.711C586.87 744.868 562.426 750.541 537.982 750.963C513.212 751.385 488.581 746.368 464.371 736.148C440.596 726.081 417.187 710.917 394.505 690.884C394.039 690.473 393.428 690.229 392.952 689.83ZM411.845 423.547C411.689 423.641 411.544 423.75 411.406 423.867C408.546 426.321 404.951 427.433 401.489 427.204C397.897 426.97 394.305 425.376 391.693 422.469C389.08 419.563 387.914 415.859 388.101 412.249C388.334 408.639 389.92 405.03 392.812 402.404C415.996 381.824 439.88 366.259 464.184 355.945C488.348 345.725 512.932 340.662 537.656 341.084C562.099 341.506 586.59 347.226 610.8 358.383L610.94 358.43C634.545 369.353 657.915 385.527 680.68 407.092L680.82 407.233C683.572 409.952 685.018 413.562 685.158 417.172C685.251 420.781 683.992 424.438 681.286 427.251C678.581 430.111 674.942 431.611 671.35 431.705C667.758 431.798 664.12 430.533 661.321 427.814C640.982 408.639 620.41 394.247 599.838 384.543C578.986 374.745 558.041 369.728 537.329 369.353C516.197 369.025 495.019 373.479 474.12 382.48C453.454 391.335 432.97 404.682 412.985 422.205C412.544 422.592 412.302 423.18 411.845 423.547ZM352.461 359.696L352.321 359.836C349.336 362.321 345.65 363.399 342.058 363.165C338.467 362.884 335.015 361.243 332.496 358.289L332.309 358.055C329.837 355.055 328.764 351.351 329.044 347.741C329.323 344.131 331.003 340.615 333.988 338.084C364.87 311.502 397.803 291.344 431.857 277.936C466.05 264.434 501.41 257.683 537.003 258.011C572.176 258.386 607.442 265.512 641.915 279.764C675.409 293.641 708.203 314.128 739.457 341.6C742.349 344.131 743.982 347.647 744.215 351.304C744.448 354.914 743.329 358.664 740.81 361.665L740.763 361.712C738.244 364.618 734.746 366.259 731.107 366.494C727.515 366.728 723.783 365.603 720.798 363.071L720.751 363.024C692.109 337.849 662.16 318.956 631.652 306.299C600.351 293.313 568.49 286.749 536.816 286.515C504.675 286.281 472.674 292.422 441.606 304.705C410.678 316.987 380.73 335.412 352.461 359.696ZM623.396 546.047C623.396 594.193 584.584 633.198 536.676 633.198C488.768 633.198 449.956 594.193 449.956 546.047C449.956 497.9 488.768 458.896 536.676 458.896C584.584 458.896 623.396 497.9 623.396 546.047Z" fill="url(#paint7_linear_1033_6892)"/>
</mask>
<g mask="url(#mask0_1033_6892)">
<g filter="url(#filter7_b_1033_6892)">
<path d="M455.5 187.054C505.932 157.937 568.068 157.937 618.5 187.054L803.642 293.946C854.075 323.063 885.142 376.874 885.142 435.108V648.892C885.142 707.126 854.075 760.937 803.642 790.054L618.5 896.946C568.068 926.063 505.932 926.063 455.5 896.946L270.358 790.054C219.925 760.937 188.858 707.126 188.858 648.892V435.108C188.858 376.874 219.925 323.063 270.358 293.946L455.5 187.054Z" fill="url(#paint8_linear_1033_6892)"/>
</g>
</g>
<path d="M1087.1 499.5C1081.93 499.5 1077.27 498.617 1073.1 496.85C1068.97 495.05 1065.55 492.5 1062.85 489.2C1060.18 485.867 1058.45 481.917 1057.65 477.35L1068.55 475.7C1069.65 480.1 1071.95 483.533 1075.45 486C1078.95 488.433 1083.03 489.65 1087.7 489.65C1090.6 489.65 1093.27 489.2 1095.7 488.3C1098.13 487.367 1100.08 486.05 1101.55 484.35C1103.05 482.617 1103.8 480.55 1103.8 478.15C1103.8 476.85 1103.57 475.7 1103.1 474.7C1102.67 473.7 1102.05 472.833 1101.25 472.1C1100.48 471.333 1099.53 470.683 1098.4 470.15C1097.3 469.583 1096.08 469.1 1094.75 468.7L1076.3 463.25C1074.5 462.717 1072.67 462.033 1070.8 461.2C1068.93 460.333 1067.22 459.217 1065.65 457.85C1064.12 456.45 1062.87 454.733 1061.9 452.7C1060.93 450.633 1060.45 448.133 1060.45 445.2C1060.45 440.767 1061.58 437.017 1063.85 433.95C1066.15 430.85 1069.25 428.517 1073.15 426.95C1077.05 425.35 1081.42 424.55 1086.25 424.55C1091.12 424.617 1095.47 425.483 1099.3 427.15C1103.17 428.817 1106.37 431.217 1108.9 434.35C1111.47 437.45 1113.23 441.217 1114.2 445.65L1103 447.55C1102.5 444.85 1101.43 442.533 1099.8 440.6C1098.17 438.633 1096.17 437.133 1093.8 436.1C1091.43 435.033 1088.87 434.483 1086.1 434.45C1083.43 434.383 1080.98 434.783 1078.75 435.65C1076.55 436.517 1074.78 437.733 1073.45 439.3C1072.15 440.867 1071.5 442.667 1071.5 444.7C1071.5 446.7 1072.08 448.317 1073.25 449.55C1074.42 450.783 1075.85 451.767 1077.55 452.5C1079.28 453.2 1081 453.783 1082.7 454.25L1096 458C1097.67 458.467 1099.55 459.1 1101.65 459.9C1103.78 460.667 1105.83 461.75 1107.8 463.15C1109.8 464.55 1111.45 466.417 1112.75 468.75C1114.05 471.05 1114.7 473.95 1114.7 477.45C1114.7 481.083 1113.97 484.283 1112.5 487.05C1111.03 489.783 1109.02 492.083 1106.45 493.95C1103.92 495.783 1100.98 497.167 1097.65 498.1C1094.32 499.033 1090.8 499.5 1087.1 499.5ZM1156.26 498C1152.86 498.667 1149.52 498.95 1146.26 498.85C1142.99 498.75 1140.07 498.117 1137.51 496.95C1134.94 495.783 1133.01 493.95 1131.71 491.45C1130.54 489.217 1129.91 486.95 1129.81 484.65C1129.74 482.317 1129.71 479.683 1129.71 476.75V429H1140.21V476.25C1140.21 478.417 1140.22 480.3 1140.26 481.9C1140.32 483.5 1140.67 484.85 1141.31 485.95C1142.51 488.017 1144.41 489.2 1147.01 489.5C1149.64 489.767 1152.72 489.65 1156.26 489.15V498ZM1119.36 452.4V444H1156.26V452.4H1119.36ZM1167.64 498V444H1176.94V457.1L1175.64 455.4C1176.31 453.667 1177.17 452.083 1178.24 450.65C1179.31 449.183 1180.54 447.983 1181.94 447.05C1183.31 446.05 1184.82 445.283 1186.49 444.75C1188.19 444.183 1189.92 443.85 1191.69 443.75C1193.46 443.617 1195.16 443.7 1196.79 444V453.8C1195.02 453.333 1193.06 453.2 1190.89 453.4C1188.76 453.6 1186.79 454.283 1184.99 455.45C1183.29 456.55 1181.94 457.883 1180.94 459.45C1179.97 461.017 1179.27 462.767 1178.84 464.7C1178.41 466.6 1178.19 468.617 1178.19 470.75V498H1167.64ZM1229.29 499.5C1223.92 499.5 1219.2 498.333 1215.14 496C1211.1 493.633 1207.95 490.35 1205.69 486.15C1203.45 481.917 1202.34 477.017 1202.34 471.45C1202.34 465.55 1203.44 460.433 1205.64 456.1C1207.87 451.767 1210.97 448.417 1214.94 446.05C1218.9 443.683 1223.52 442.5 1228.79 442.5C1234.29 442.5 1238.97 443.783 1242.84 446.35C1246.7 448.883 1249.59 452.5 1251.49 457.2C1253.42 461.9 1254.19 467.483 1253.79 473.95H1243.34V470.15C1243.27 463.883 1242.07 459.25 1239.74 456.25C1237.44 453.25 1233.92 451.75 1229.19 451.75C1223.95 451.75 1220.02 453.4 1217.39 456.7C1214.75 460 1213.44 464.767 1213.44 471C1213.44 476.933 1214.75 481.533 1217.39 484.8C1220.02 488.033 1223.82 489.65 1228.79 489.65C1232.05 489.65 1234.87 488.917 1237.24 487.45C1239.64 485.95 1241.5 483.817 1242.84 481.05L1253.09 484.3C1250.99 489.133 1247.8 492.883 1243.54 495.55C1239.27 498.183 1234.52 499.5 1229.29 499.5ZM1210.04 473.95V465.8H1248.59V473.95H1210.04ZM1279.28 499.5C1275.28 499.5 1271.93 498.767 1269.23 497.3C1266.53 495.8 1264.48 493.833 1263.08 491.4C1261.71 488.933 1261.03 486.233 1261.03 483.3C1261.03 480.567 1261.51 478.167 1262.48 476.1C1263.44 474.033 1264.88 472.283 1266.78 470.85C1268.68 469.383 1271.01 468.2 1273.78 467.3C1276.18 466.6 1278.89 465.983 1281.93 465.45C1284.96 464.917 1288.14 464.417 1291.48 463.95C1294.84 463.483 1298.18 463.017 1301.48 462.55L1297.68 464.65C1297.74 460.417 1296.84 457.283 1294.98 455.25C1293.14 453.183 1289.98 452.15 1285.48 452.15C1282.64 452.15 1280.04 452.817 1277.68 454.15C1275.31 455.45 1273.66 457.617 1272.73 460.65L1262.98 457.65C1264.31 453.017 1266.84 449.333 1270.58 446.6C1274.34 443.867 1279.34 442.5 1285.58 442.5C1290.41 442.5 1294.61 443.333 1298.18 445C1301.78 446.633 1304.41 449.233 1306.08 452.8C1306.94 454.567 1307.48 456.433 1307.68 458.4C1307.88 460.367 1307.98 462.483 1307.98 464.75V498H1298.73V485.65L1300.53 487.25C1298.29 491.383 1295.44 494.467 1291.98 496.5C1288.54 498.5 1284.31 499.5 1279.28 499.5ZM1281.13 490.95C1284.09 490.95 1286.64 490.433 1288.78 489.4C1290.91 488.333 1292.63 486.983 1293.93 485.35C1295.23 483.717 1296.08 482.017 1296.48 480.25C1297.04 478.65 1297.36 476.85 1297.43 474.85C1297.53 472.85 1297.58 471.25 1297.58 470.05L1300.98 471.3C1297.68 471.8 1294.68 472.25 1291.98 472.65C1289.28 473.05 1286.83 473.45 1284.63 473.85C1282.46 474.217 1280.53 474.667 1278.83 475.2C1277.39 475.7 1276.11 476.3 1274.98 477C1273.88 477.7 1272.99 478.55 1272.33 479.55C1271.69 480.55 1271.38 481.767 1271.38 483.2C1271.38 484.6 1271.73 485.9 1272.43 487.1C1273.13 488.267 1274.19 489.2 1275.63 489.9C1277.06 490.6 1278.89 490.95 1281.13 490.95ZM1385.66 498L1385.71 464.35C1385.71 460.45 1384.71 457.417 1382.71 455.25C1380.71 453.05 1378.08 451.95 1374.81 451.95C1372.81 451.95 1370.98 452.417 1369.31 453.35C1367.68 454.25 1366.34 455.617 1365.31 457.45C1364.31 459.25 1363.81 461.517 1363.81 464.25L1358.76 461.7C1358.69 457.9 1359.49 454.567 1361.16 451.7C1362.86 448.833 1365.16 446.617 1368.06 445.05C1370.96 443.45 1374.21 442.65 1377.81 442.65C1383.64 442.65 1388.16 444.4 1391.36 447.9C1394.56 451.4 1396.16 456.05 1396.16 461.85L1396.11 498H1385.66ZM1320.91 498V444H1330.21V459.6H1331.41V498H1320.91ZM1353.31 498L1353.36 464.55C1353.36 460.617 1352.36 457.533 1350.36 455.3C1348.39 453.067 1345.74 451.95 1342.41 451.95C1339.11 451.95 1336.44 453.083 1334.41 455.35C1332.41 457.617 1331.41 460.583 1331.41 464.25L1326.41 461.05C1326.41 457.517 1327.26 454.367 1328.96 451.6C1330.66 448.833 1332.96 446.65 1335.86 445.05C1338.76 443.45 1342.04 442.65 1345.71 442.65C1349.54 442.65 1352.81 443.467 1355.51 445.1C1358.21 446.7 1360.26 448.95 1361.66 451.85C1363.09 454.75 1363.81 458.117 1363.81 461.95L1363.76 498H1353.31ZM1432.41 499.5C1427.04 499.5 1422.33 498.333 1418.26 496C1414.23 493.633 1411.08 490.35 1408.81 486.15C1406.58 481.917 1405.46 477.017 1405.46 471.45C1405.46 465.55 1406.56 460.433 1408.76 456.1C1410.99 451.767 1414.09 448.417 1418.06 446.05C1422.03 443.683 1426.64 442.5 1431.91 442.5C1437.41 442.5 1442.09 443.783 1445.96 446.35C1449.83 448.883 1452.71 452.5 1454.61 457.2C1456.54 461.9 1457.31 467.483 1456.91 473.95H1446.46V470.15C1446.39 463.883 1445.19 459.25 1442.86 456.25C1440.56 453.25 1437.04 451.75 1432.31 451.75C1427.08 451.75 1423.14 453.4 1420.51 456.7C1417.88 460 1416.56 464.767 1416.56 471C1416.56 476.933 1417.88 481.533 1420.51 484.8C1423.14 488.033 1426.94 489.65 1431.91 489.65C1435.18 489.65 1437.99 488.917 1440.36 487.45C1442.76 485.95 1444.63 483.817 1445.96 481.05L1456.21 484.3C1454.11 489.133 1450.93 492.883 1446.66 495.55C1442.39 498.183 1437.64 499.5 1432.41 499.5ZM1413.16 473.95V465.8H1451.71V473.95H1413.16ZM1468.13 498V444H1477.43V457.1L1476.13 455.4C1476.8 453.667 1477.66 452.083 1478.73 450.65C1479.8 449.183 1481.03 447.983 1482.43 447.05C1483.8 446.05 1485.31 445.283 1486.98 444.75C1488.68 444.183 1490.41 443.85 1492.18 443.75C1493.95 443.617 1495.65 443.7 1497.28 444V453.8C1495.51 453.333 1493.55 453.2 1491.38 453.4C1489.25 453.6 1487.28 454.283 1485.48 455.45C1483.78 456.55 1482.43 457.883 1481.43 459.45C1480.46 461.017 1479.76 462.767 1479.33 464.7C1478.9 466.6 1478.68 468.617 1478.68 470.75V498H1468.13ZM1556.27 499.5C1551.44 499.5 1546.99 498.667 1542.92 497C1538.85 495.3 1535.32 492.833 1532.32 489.6C1529.32 486.367 1526.99 482.433 1525.32 477.8C1523.65 473.167 1522.82 467.9 1522.82 462C1522.82 454.233 1524.24 447.567 1527.07 442C1529.9 436.4 1533.84 432.1 1538.87 429.1C1543.9 426.067 1549.7 424.55 1556.27 424.55C1564.74 424.55 1571.49 426.517 1576.52 430.45C1581.59 434.383 1585.04 439.817 1586.87 446.75L1576.27 448.65C1574.8 444.35 1572.44 440.917 1569.17 438.35C1565.9 435.783 1561.8 434.483 1556.87 434.45C1551.77 434.417 1547.52 435.55 1544.12 437.85C1540.75 440.15 1538.22 443.383 1536.52 447.55C1534.82 451.683 1533.95 456.5 1533.92 462C1533.89 467.5 1534.72 472.317 1536.42 476.45C1538.12 480.55 1540.67 483.75 1544.07 486.05C1547.5 488.35 1551.77 489.517 1556.87 489.55C1560.97 489.617 1564.49 488.867 1567.42 487.3C1570.39 485.7 1572.74 483.367 1574.47 480.3C1576.2 477.233 1577.32 473.467 1577.82 469H1563.82V460.6H1588.92C1588.99 461.2 1589.04 462 1589.07 463C1589.1 463.967 1589.12 464.583 1589.12 464.85C1589.12 471.517 1587.84 477.467 1585.27 482.7C1582.7 487.933 1578.97 492.05 1574.07 495.05C1569.17 498.017 1563.24 499.5 1556.27 499.5ZM1622.54 499.5C1617.14 499.5 1612.45 498.283 1608.49 495.85C1604.52 493.417 1601.45 490.067 1599.29 485.8C1597.15 481.5 1596.09 476.55 1596.09 470.95C1596.09 465.317 1597.19 460.367 1599.39 456.1C1601.59 451.8 1604.67 448.467 1608.64 446.1C1612.6 443.7 1617.24 442.5 1622.54 442.5C1627.94 442.5 1632.62 443.717 1636.59 446.15C1640.55 448.583 1643.62 451.933 1645.79 456.2C1647.95 460.467 1649.04 465.383 1649.04 470.95C1649.04 476.583 1647.94 481.55 1645.74 485.85C1643.57 490.117 1640.5 493.467 1636.54 495.9C1632.57 498.3 1627.9 499.5 1622.54 499.5ZM1622.54 489.65C1627.7 489.65 1631.55 487.917 1634.09 484.45C1636.65 480.95 1637.94 476.45 1637.94 470.95C1637.94 465.317 1636.64 460.817 1634.04 457.45C1631.47 454.05 1627.64 452.35 1622.54 452.35C1619.04 452.35 1616.15 453.15 1613.89 454.75C1611.62 456.317 1609.94 458.5 1608.84 461.3C1607.74 464.067 1607.19 467.283 1607.19 470.95C1607.19 476.617 1608.49 481.15 1611.09 484.55C1613.69 487.95 1617.5 489.65 1622.54 489.65ZM1675.27 499.5C1671.27 499.5 1667.92 498.767 1665.22 497.3C1662.52 495.8 1660.47 493.833 1659.07 491.4C1657.71 488.933 1657.02 486.233 1657.02 483.3C1657.02 480.567 1657.51 478.167 1658.47 476.1C1659.44 474.033 1660.87 472.283 1662.77 470.85C1664.67 469.383 1667.01 468.2 1669.77 467.3C1672.17 466.6 1674.89 465.983 1677.92 465.45C1680.96 464.917 1684.14 464.417 1687.47 463.95C1690.84 463.483 1694.17 463.017 1697.47 462.55L1693.67 464.65C1693.74 460.417 1692.84 457.283 1690.97 455.25C1689.14 453.183 1685.97 452.15 1681.47 452.15C1678.64 452.15 1676.04 452.817 1673.67 454.15C1671.31 455.45 1669.66 457.617 1668.72 460.65L1658.97 457.65C1660.31 453.017 1662.84 449.333 1666.57 446.6C1670.34 443.867 1675.34 442.5 1681.57 442.5C1686.41 442.5 1690.61 443.333 1694.17 445C1697.77 446.633 1700.41 449.233 1702.07 452.8C1702.94 454.567 1703.47 456.433 1703.67 458.4C1703.87 460.367 1703.97 462.483 1703.97 464.75V498H1694.72V485.65L1696.52 487.25C1694.29 491.383 1691.44 494.467 1687.97 496.5C1684.54 498.5 1680.31 499.5 1675.27 499.5ZM1677.12 490.95C1680.09 490.95 1682.64 490.433 1684.77 489.4C1686.91 488.333 1688.62 486.983 1689.92 485.35C1691.22 483.717 1692.07 482.017 1692.47 480.25C1693.04 478.65 1693.36 476.85 1693.42 474.85C1693.52 472.85 1693.57 471.25 1693.57 470.05L1696.97 471.3C1693.67 471.8 1690.67 472.25 1687.97 472.65C1685.27 473.05 1682.82 473.45 1680.62 473.85C1678.46 474.217 1676.52 474.667 1674.82 475.2C1673.39 475.7 1672.11 476.3 1670.97 477C1669.87 477.7 1668.99 478.55 1668.32 479.55C1667.69 480.55 1667.37 481.767 1667.37 483.2C1667.37 484.6 1667.72 485.9 1668.42 487.1C1669.12 488.267 1670.19 489.2 1671.62 489.9C1673.06 490.6 1674.89 490.95 1677.12 490.95ZM1717.96 498V424.5H1728.41V498H1717.96Z" fill="#282828"/>
<path d="M1068.47 591.645C1066.2 591.645 1064.16 591.251 1062.34 590.462C1060.54 589.674 1059.05 588.549 1057.87 587.087C1056.71 585.611 1055.97 583.862 1055.66 581.841L1061.03 581.024C1061.49 582.859 1062.43 584.278 1063.85 585.281C1065.28 586.284 1066.93 586.786 1068.79 586.786C1069.9 586.786 1070.93 586.614 1071.91 586.27C1072.88 585.926 1073.67 585.424 1074.27 584.765C1074.89 584.106 1075.2 583.296 1075.2 582.335C1075.2 581.905 1075.13 581.511 1074.98 581.153C1074.84 580.78 1074.63 580.451 1074.34 580.164C1074.07 579.877 1073.71 579.619 1073.26 579.39C1072.83 579.146 1072.33 578.938 1071.76 578.766L1063.76 576.401C1063.07 576.201 1062.33 575.936 1061.53 575.606C1060.74 575.262 1059.98 574.796 1059.27 574.208C1058.57 573.606 1057.98 572.847 1057.53 571.929C1057.08 570.998 1056.86 569.851 1056.86 568.489C1056.86 566.497 1057.36 564.827 1058.36 563.48C1059.38 562.118 1060.74 561.101 1062.45 560.427C1064.17 559.753 1066.08 559.424 1068.17 559.438C1070.29 559.452 1072.18 559.818 1073.84 560.534C1075.51 561.237 1076.9 562.262 1078.02 563.609C1079.13 564.956 1079.92 566.583 1080.38 568.489L1074.81 569.457C1074.58 568.368 1074.14 567.443 1073.48 566.683C1072.83 565.909 1072.04 565.322 1071.09 564.92C1070.16 564.519 1069.16 564.304 1068.1 564.275C1067.07 564.261 1066.11 564.419 1065.22 564.748C1064.35 565.064 1063.64 565.522 1063.09 566.124C1062.56 566.726 1062.3 567.429 1062.3 568.231C1062.3 568.991 1062.53 569.615 1062.99 570.102C1063.45 570.575 1064.01 570.955 1064.69 571.241C1065.37 571.514 1066.07 571.743 1066.77 571.929L1072.32 573.477C1073.08 573.678 1073.93 573.95 1074.88 574.294C1075.82 574.638 1076.73 575.119 1077.61 575.735C1078.48 576.351 1079.2 577.161 1079.76 578.164C1080.33 579.168 1080.62 580.443 1080.62 581.991C1080.62 583.597 1080.28 585.009 1079.61 586.227C1078.95 587.431 1078.05 588.434 1076.92 589.237C1075.79 590.04 1074.49 590.642 1073.03 591.043C1071.58 591.444 1070.06 591.645 1068.47 591.645ZM1095.53 591.645C1093.2 591.645 1091.18 591.122 1089.44 590.075C1087.71 589.029 1086.36 587.589 1085.4 585.754C1084.45 583.905 1083.98 581.784 1083.98 579.39C1083.98 576.953 1084.47 574.818 1085.44 572.983C1086.42 571.148 1087.77 569.715 1089.51 568.683C1091.24 567.651 1093.25 567.135 1095.53 567.135C1097.86 567.135 1099.9 567.658 1101.63 568.704C1103.37 569.751 1104.71 571.198 1105.67 573.047C1106.63 574.882 1107.11 576.996 1107.11 579.39C1107.11 581.798 1106.63 583.926 1105.65 585.775C1104.69 587.61 1103.35 589.051 1101.61 590.097C1099.88 591.129 1097.85 591.645 1095.53 591.645ZM1095.53 586.786C1097.59 586.786 1099.12 586.098 1100.13 584.722C1101.13 583.346 1101.63 581.569 1101.63 579.39C1101.63 577.14 1101.12 575.348 1100.11 574.015C1099.09 572.668 1097.56 571.994 1095.53 571.994C1094.14 571.994 1092.99 572.309 1092.09 572.94C1091.2 573.556 1090.54 574.423 1090.11 575.541C1089.68 576.645 1089.46 577.928 1089.46 579.39C1089.46 581.64 1089.97 583.439 1090.99 584.786C1092.02 586.119 1093.53 586.786 1095.53 586.786ZM1120.56 591.667C1118.84 591.667 1117.42 591.38 1116.3 590.806C1115.18 590.233 1114.3 589.502 1113.64 588.613C1112.98 587.725 1112.49 586.779 1112.17 585.775C1111.86 584.772 1111.65 583.826 1111.55 582.937C1111.46 582.034 1111.42 581.303 1111.42 580.744V567.78H1116.67V578.96C1116.67 579.677 1116.72 580.486 1116.82 581.389C1116.92 582.278 1117.15 583.138 1117.51 583.969C1117.88 584.786 1118.42 585.46 1119.14 585.99C1119.87 586.521 1120.85 586.786 1122.09 586.786C1122.75 586.786 1123.4 586.678 1124.04 586.463C1124.69 586.248 1125.27 585.883 1125.78 585.367C1126.31 584.837 1126.74 584.113 1127.05 583.195C1127.37 582.278 1127.53 581.117 1127.53 579.712L1130.6 581.024C1130.6 583.002 1130.21 584.794 1129.44 586.399C1128.68 588.004 1127.55 589.287 1126.06 590.247C1124.57 591.194 1122.74 591.667 1120.56 591.667ZM1128.15 591V583.797H1127.53V567.78H1132.73V591H1128.15ZM1152.38 591C1150.84 591.287 1149.34 591.409 1147.86 591.366C1146.4 591.337 1145.09 591.072 1143.93 590.57C1142.77 590.054 1141.89 589.244 1141.28 588.14C1140.75 587.137 1140.47 586.112 1140.45 585.066C1140.42 584.02 1140.4 582.837 1140.4 581.518V561.33H1145.56V581.217C1145.56 582.149 1145.57 582.966 1145.58 583.668C1145.61 584.371 1145.76 584.944 1146.04 585.388C1146.55 586.248 1147.38 586.729 1148.51 586.829C1149.64 586.929 1150.93 586.872 1152.38 586.657V591ZM1136.19 571.843V567.78H1152.38V571.843H1136.19ZM1166.75 591.645C1164.4 591.645 1162.34 591.136 1160.56 590.118C1158.78 589.101 1157.39 587.689 1156.39 585.883C1155.4 584.077 1154.91 581.999 1154.91 579.648C1154.91 577.111 1155.39 574.911 1156.37 573.047C1157.34 571.17 1158.7 569.715 1160.43 568.683C1162.17 567.651 1164.17 567.135 1166.45 567.135C1168.86 567.135 1170.9 567.701 1172.58 568.833C1174.27 569.951 1175.52 571.535 1176.34 573.585C1177.16 575.635 1177.47 578.05 1177.27 580.83H1172.13V578.938C1172.11 576.416 1171.67 574.574 1170.79 573.413C1169.92 572.252 1168.54 571.671 1166.67 571.671C1164.54 571.671 1162.97 572.331 1161.94 573.649C1160.9 574.954 1160.39 576.867 1160.39 579.39C1160.39 581.741 1160.9 583.561 1161.94 584.851C1162.97 586.141 1164.47 586.786 1166.45 586.786C1167.73 586.786 1168.82 586.506 1169.74 585.947C1170.67 585.374 1171.39 584.55 1171.89 583.475L1177.01 585.023C1176.12 587.116 1174.74 588.742 1172.88 589.903C1171.03 591.064 1168.99 591.645 1166.75 591.645ZM1158.75 580.83V576.917H1174.73V580.83H1158.75ZM1197.49 591V579.82C1197.49 579.089 1197.44 578.279 1197.34 577.39C1197.24 576.502 1197.01 575.649 1196.63 574.832C1196.28 574.001 1195.73 573.32 1195 572.789C1194.28 572.259 1193.31 571.994 1192.08 571.994C1191.42 571.994 1190.76 572.101 1190.12 572.316C1189.47 572.531 1188.89 572.904 1188.36 573.434C1187.84 573.95 1187.42 574.667 1187.11 575.584C1186.79 576.487 1186.64 577.648 1186.64 579.067L1183.56 577.756C1183.56 575.778 1183.94 573.986 1184.7 572.381C1185.47 570.776 1186.61 569.5 1188.1 568.554C1189.59 567.594 1191.42 567.113 1193.6 567.113C1195.32 567.113 1196.74 567.4 1197.86 567.973C1198.98 568.547 1199.87 569.278 1200.52 570.166C1201.18 571.055 1201.67 572.001 1201.99 573.004C1202.3 574.008 1202.5 574.961 1202.59 575.864C1202.69 576.753 1202.74 577.476 1202.74 578.035V591H1197.49ZM1181.39 591V567.78H1186.01V574.982H1186.64V591H1181.39ZM1214.84 591.645C1213.17 591.645 1211.75 591.33 1210.59 590.699C1209.42 590.054 1208.54 589.201 1207.94 588.14C1207.35 587.08 1207.06 585.912 1207.06 584.636C1207.06 583.518 1207.25 582.515 1207.62 581.626C1207.99 580.723 1208.56 579.949 1209.34 579.304C1210.11 578.645 1211.12 578.107 1212.35 577.691C1213.28 577.39 1214.37 577.118 1215.62 576.874C1216.88 576.631 1218.24 576.409 1219.7 576.208C1221.18 575.993 1222.72 575.764 1224.32 575.52L1222.48 576.573C1222.49 574.968 1222.13 573.786 1221.4 573.026C1220.67 572.266 1219.44 571.886 1217.7 571.886C1216.66 571.886 1215.65 572.13 1214.67 572.617C1213.7 573.105 1213.02 573.943 1212.63 575.133L1207.9 573.649C1208.47 571.686 1209.56 570.109 1211.17 568.919C1212.79 567.73 1214.96 567.135 1217.7 567.135C1219.77 567.135 1221.58 567.472 1223.14 568.145C1224.72 568.819 1225.89 569.923 1226.65 571.456C1227.06 572.273 1227.31 573.112 1227.4 573.972C1227.48 574.818 1227.53 575.742 1227.53 576.745V591H1222.99V585.969L1223.74 586.786C1222.7 588.463 1221.47 589.696 1220.07 590.484C1218.68 591.258 1216.94 591.645 1214.84 591.645ZM1215.87 587.517C1217.05 587.517 1218.05 587.309 1218.88 586.893C1219.72 586.478 1220.38 585.969 1220.86 585.367C1221.36 584.765 1221.7 584.199 1221.87 583.668C1222.15 583.009 1222.3 582.257 1222.32 581.411C1222.37 580.551 1222.39 579.856 1222.39 579.325L1223.98 579.798C1222.42 580.042 1221.08 580.257 1219.96 580.443C1218.84 580.63 1217.88 580.809 1217.08 580.981C1216.28 581.139 1215.57 581.318 1214.95 581.518C1214.35 581.733 1213.84 581.984 1213.42 582.271C1213.01 582.558 1212.69 582.887 1212.46 583.26C1212.24 583.633 1212.13 584.07 1212.13 584.571C1212.13 585.145 1212.28 585.654 1212.56 586.098C1212.85 586.528 1213.27 586.872 1213.81 587.13C1214.37 587.388 1215.06 587.517 1215.87 587.517ZM1249.19 591V579.82C1249.19 579.089 1249.14 578.279 1249.04 577.39C1248.93 576.502 1248.7 575.649 1248.33 574.832C1247.97 574.001 1247.42 573.32 1246.69 572.789C1245.98 572.259 1245 571.994 1243.77 571.994C1243.11 571.994 1242.46 572.101 1241.81 572.316C1241.17 572.531 1240.58 572.904 1240.05 573.434C1239.53 573.95 1239.12 574.667 1238.8 575.584C1238.49 576.487 1238.33 577.648 1238.33 579.067L1235.25 577.756C1235.25 575.778 1235.63 573.986 1236.39 572.381C1237.17 570.776 1238.3 569.5 1239.79 568.554C1241.28 567.594 1243.12 567.113 1245.29 567.113C1247.01 567.113 1248.43 567.4 1249.55 567.973C1250.67 568.547 1251.56 569.278 1252.22 570.166C1252.88 571.055 1253.36 572.001 1253.68 573.004C1253.99 574.008 1254.2 574.961 1254.28 575.864C1254.38 576.753 1254.43 577.476 1254.43 578.035V591H1249.19ZM1233.08 591V567.78H1237.7V574.982H1238.33V591H1233.08ZM1269.75 591.645C1267.35 591.645 1265.31 591.115 1263.62 590.054C1261.93 588.979 1260.63 587.517 1259.73 585.668C1258.84 583.819 1258.39 581.726 1258.37 579.39C1258.39 577.011 1258.85 574.904 1259.77 573.069C1260.7 571.22 1262.02 569.772 1263.73 568.726C1265.43 567.665 1267.46 567.135 1269.81 567.135C1272.45 567.135 1274.68 567.801 1276.5 569.134C1278.33 570.453 1279.53 572.259 1280.09 574.552L1274.93 575.95C1274.53 574.703 1273.86 573.735 1272.93 573.047C1272 572.345 1270.94 571.994 1269.75 571.994C1268.4 571.994 1267.29 572.316 1266.42 572.961C1265.54 573.592 1264.9 574.466 1264.48 575.584C1264.06 576.702 1263.86 577.971 1263.86 579.39C1263.86 581.597 1264.35 583.382 1265.34 584.743C1266.33 586.105 1267.8 586.786 1269.75 586.786C1271.12 586.786 1272.21 586.471 1272.99 585.84C1273.8 585.209 1274.4 584.299 1274.8 583.109L1280.09 584.292C1279.37 586.657 1278.12 588.477 1276.33 589.753C1274.54 591.014 1272.34 591.645 1269.75 591.645ZM1294.32 591.645C1291.97 591.645 1289.91 591.136 1288.13 590.118C1286.35 589.101 1284.96 587.689 1283.96 585.883C1282.97 584.077 1282.48 581.999 1282.48 579.648C1282.48 577.111 1282.97 574.911 1283.94 573.047C1284.91 571.17 1286.27 569.715 1288 568.683C1289.74 567.651 1291.74 567.135 1294.02 567.135C1296.43 567.135 1298.47 567.701 1300.15 568.833C1301.84 569.951 1303.1 571.535 1303.91 573.585C1304.73 575.635 1305.04 578.05 1304.84 580.83H1299.7V578.938C1299.68 576.416 1299.24 574.574 1298.37 573.413C1297.49 572.252 1296.12 571.671 1294.24 571.671C1292.12 571.671 1290.54 572.331 1289.51 573.649C1288.48 574.954 1287.96 576.867 1287.96 579.39C1287.96 581.741 1288.48 583.561 1289.51 584.851C1290.54 586.141 1292.05 586.786 1294.02 586.786C1295.3 586.786 1296.4 586.506 1297.31 585.947C1298.24 585.374 1298.96 584.55 1299.46 583.475L1304.58 585.023C1303.69 587.116 1302.32 588.742 1300.45 589.903C1298.6 591.064 1296.56 591.645 1294.32 591.645ZM1286.33 580.83V576.917H1302.3V580.83H1286.33ZM1320.26 591V567.414C1320.26 566.827 1320.29 566.182 1320.33 565.479C1320.37 564.763 1320.49 564.053 1320.69 563.351C1320.9 562.649 1321.26 562.011 1321.79 561.437C1322.45 560.706 1323.16 560.205 1323.92 559.932C1324.69 559.646 1325.45 559.488 1326.2 559.459C1326.94 559.416 1327.6 559.395 1328.15 559.395H1331.06V563.609H1328.37C1327.38 563.609 1326.64 563.86 1326.16 564.361C1325.68 564.849 1325.45 565.494 1325.45 566.296V591H1320.26ZM1316.52 571.843V567.78H1331.06V571.843H1316.52ZM1335.57 564.254V559.502H1340.75V564.254H1335.57ZM1335.57 591V567.78H1340.75V591H1335.57ZM1363.28 591V579.82C1363.28 579.089 1363.23 578.279 1363.13 577.39C1363.03 576.502 1362.79 575.649 1362.42 574.832C1362.06 574.001 1361.52 573.32 1360.78 572.789C1360.07 572.259 1359.09 571.994 1357.86 571.994C1357.2 571.994 1356.55 572.101 1355.9 572.316C1355.26 572.531 1354.67 572.904 1354.14 573.434C1353.63 573.95 1353.21 574.667 1352.89 575.584C1352.58 576.487 1352.42 577.648 1352.42 579.067L1349.35 577.756C1349.35 575.778 1349.73 573.986 1350.49 572.381C1351.26 570.776 1352.39 569.5 1353.88 568.554C1355.37 567.594 1357.21 567.113 1359.39 567.113C1361.11 567.113 1362.53 567.4 1363.64 567.973C1364.76 568.547 1365.65 569.278 1366.31 570.166C1366.97 571.055 1367.46 572.001 1367.77 573.004C1368.09 574.008 1368.29 574.961 1368.37 575.864C1368.47 576.753 1368.52 577.476 1368.52 578.035V591H1363.28ZM1347.18 591V567.78H1351.8V574.982H1352.42V591H1347.18ZM1380.63 591.645C1378.95 591.645 1377.53 591.33 1376.37 590.699C1375.21 590.054 1374.33 589.201 1373.73 588.14C1373.14 587.08 1372.85 585.912 1372.85 584.636C1372.85 583.518 1373.03 582.515 1373.4 581.626C1373.78 580.723 1374.35 579.949 1375.12 579.304C1375.9 578.645 1376.9 578.107 1378.13 577.691C1379.07 577.39 1380.16 577.118 1381.4 576.874C1382.66 576.631 1384.03 576.409 1385.49 576.208C1386.96 575.993 1388.5 575.764 1390.11 575.52L1388.26 576.573C1388.27 574.968 1387.92 573.786 1387.19 573.026C1386.45 572.266 1385.22 571.886 1383.49 571.886C1382.44 571.886 1381.43 572.13 1380.46 572.617C1379.48 573.105 1378.8 573.943 1378.41 575.133L1373.68 573.649C1374.26 571.686 1375.35 570.109 1376.95 568.919C1378.57 567.73 1380.75 567.135 1383.49 567.135C1385.55 567.135 1387.36 567.472 1388.93 568.145C1390.5 568.819 1391.67 569.923 1392.43 571.456C1392.85 572.273 1393.1 573.112 1393.18 573.972C1393.27 574.818 1393.31 575.742 1393.31 576.745V591H1388.78V585.969L1389.53 586.786C1388.48 588.463 1387.26 589.696 1385.85 590.484C1384.46 591.258 1382.72 591.645 1380.63 591.645ZM1381.66 587.517C1382.84 587.517 1383.84 587.309 1384.67 586.893C1385.5 586.478 1386.16 585.969 1386.65 585.367C1387.15 584.765 1387.49 584.199 1387.66 583.668C1387.93 583.009 1388.08 582.257 1388.11 581.411C1388.15 580.551 1388.17 579.856 1388.17 579.325L1389.77 579.798C1388.2 580.042 1386.86 580.257 1385.75 580.443C1384.63 580.63 1383.67 580.809 1382.86 580.981C1382.06 581.139 1381.35 581.318 1380.74 581.518C1380.13 581.733 1379.62 581.984 1379.21 582.271C1378.79 582.558 1378.47 582.887 1378.24 583.26C1378.03 583.633 1377.92 584.07 1377.92 584.571C1377.92 585.145 1378.06 585.654 1378.35 586.098C1378.64 586.528 1379.05 586.872 1379.6 587.13C1380.16 587.388 1380.84 587.517 1381.66 587.517ZM1399.34 591V559.395H1404.52V591H1399.34ZM1421.52 591.645C1419.17 591.645 1417.1 591.136 1415.33 590.118C1413.55 589.101 1412.16 587.689 1411.16 585.883C1410.17 584.077 1409.67 581.999 1409.67 579.648C1409.67 577.111 1410.16 574.911 1411.13 573.047C1412.11 571.17 1413.46 569.715 1415.2 568.683C1416.93 567.651 1418.94 567.135 1421.22 567.135C1423.63 567.135 1425.67 567.701 1427.35 568.833C1429.04 569.951 1430.29 571.535 1431.11 573.585C1431.92 575.635 1432.23 578.05 1432.03 580.83H1426.89V578.938C1426.88 576.416 1426.43 574.574 1425.56 573.413C1424.69 572.252 1423.31 571.671 1421.43 571.671C1419.31 571.671 1417.73 572.331 1416.7 573.649C1415.67 574.954 1415.15 576.867 1415.15 579.39C1415.15 581.741 1415.67 583.561 1416.7 584.851C1417.73 586.141 1419.24 586.786 1421.22 586.786C1422.49 586.786 1423.59 586.506 1424.51 585.947C1425.44 585.374 1426.16 584.55 1426.66 583.475L1431.77 585.023C1430.89 587.116 1429.51 588.742 1427.65 589.903C1425.8 591.064 1423.75 591.645 1421.52 591.645ZM1413.52 580.83V576.917H1429.5V580.83H1413.52Z" fill="#282828"/>
</g>
<defs>
<filter id="filter0_bd_1033_6892" x="-261.867" y="-636.955" width="2145.73" height="2379.91" filterUnits="userSpaceOnUse" color-interpolation-filters="sRGB">
<feFlood flood-opacity="0" result="BackgroundImageFix"/>
<feGaussianBlur in="BackgroundImageFix" stdDeviation="11"/>
<feComposite in2="SourceAlpha" operator="in" result="effect1_backgroundBlur_1033_6892"/>
<feColorMatrix in="SourceAlpha" type="matrix" values="0 0 0 0 0 0 0 0 0 0 0 0 0 0 0 0 0 0 127 0" result="hardAlpha"/>
<feOffset dx="11" dy="13"/>
<feGaussianBlur stdDeviation="41.5"/>
<feComposite in2="hardAlpha" operator="out"/>
<feColorMatrix type="matrix" values="0 0 0 0 0 0 0 0 0 0 0 0 0 0 0 0 0 0 0.06 0"/>
<feBlend mode="normal" in2="effect1_backgroundBlur_1033_6892" result="effect2_dropShadow_1033_6892"/>
<feBlend mode="normal" in="SourceGraphic" in2="effect2_dropShadow_1033_6892" result="shape"/>
</filter>
<filter id="filter1_bd_1033_6892" x="-383.25" y="-454.955" width="1830.5" height="2015.91" filterUnits="userSpaceOnUse" color-interpolation-filters="sRGB">
<feFlood flood-opacity="0" result="BackgroundImageFix"/>
<feGaussianBlur in="BackgroundImageFix" stdDeviation="11"/>
<feComposite in2="SourceAlpha" operator="in" result="effect1_backgroundBlur_1033_6892"/>
<feColorMatrix in="SourceAlpha" type="matrix" values="0 0 0 0 0 0 0 0 0 0 0 0 0 0 0 0 0 0 127 0" result="hardAlpha"/>
<feOffset dx="11" dy="13"/>
<feGaussianBlur stdDeviation="41.5"/>
<feComposite in2="hardAlpha" operator="out"/>
<feColorMatrix type="matrix" values="0 0 0 0 0 0 0 0 0 0 0 0 0 0 0 0 0 0 0.06 0"/>
<feBlend mode="normal" in2="effect1_backgroundBlur_1033_6892" result="effect2_dropShadow_1033_6892"/>
<feBlend mode="normal" in="SourceGraphic" in2="effect2_dropShadow_1033_6892" result="shape"/>
</filter>
<filter id="filter2_bd_1033_6892" x="-124.414" y="-185.955" width="1360.83" height="1477.91" filterUnits="userSpaceOnUse" color-interpolation-filters="sRGB">
<feFlood flood-opacity="0" result="BackgroundImageFix"/>
<feGaussianBlur in="BackgroundImageFix" stdDeviation="11"/>
<feComposite in2="SourceAlpha" operator="in" result="effect1_backgroundBlur_1033_6892"/>
<feColorMatrix in="SourceAlpha" type="matrix" values="0 0 0 0 0 0 0 0 0 0 0 0 0 0 0 0 0 0 127 0" result="hardAlpha"/>
<feOffset dx="11" dy="13"/>
<feGaussianBlur stdDeviation="34.5"/>
<feComposite in2="hardAlpha" operator="out"/>
<feColorMatrix type="matrix" values="0 0 0 0 0 0 0 0 0 0 0 0 0 0 0 0 0 0 0.06 0"/>
<feBlend mode="normal" in2="effect1_backgroundBlur_1033_6892" result="effect2_dropShadow_1033_6892"/>
<feBlend mode="normal" in="SourceGraphic" in2="effect2_dropShadow_1033_6892" result="shape"/>
</filter>
<filter id="filter3_f_1033_6892" x="295" y="-76" width="972" height="972" filterUnits="userSpaceOnUse" color-interpolation-filters="sRGB">
<feFlood flood-opacity="0" result="BackgroundImageFix"/>
<feBlend mode="normal" in="SourceGraphic" in2="BackgroundImageFix" result="shape"/>
<feGaussianBlur stdDeviation="113" result="effect1_foregroundBlur_1033_6892"/>
</filter>
<filter id="filter4_bd_1033_6892" x="33.2026" y="-14.7838" width="1045.59" height="1135.57" filterUnits="userSpaceOnUse" color-interpolation-filters="sRGB">
<feFlood flood-opacity="0" result="BackgroundImageFix"/>
<feGaussianBlur in="BackgroundImageFix" stdDeviation="11"/>
<feComposite in2="SourceAlpha" operator="in" result="effect1_backgroundBlur_1033_6892"/>
<feColorMatrix in="SourceAlpha" type="matrix" values="0 0 0 0 0 0 0 0 0 0 0 0 0 0 0 0 0 0 127 0" result="hardAlpha"/>
<feOffset dx="11" dy="13"/>
<feGaussianBlur stdDeviation="34.5"/>
<feComposite in2="hardAlpha" operator="out"/>
<feColorMatrix type="matrix" values="0 0 0 0 0 0 0 0 0 0 0 0 0 0 0 0 0 0 0.06 0"/>
<feBlend mode="normal" in2="effect1_backgroundBlur_1033_6892" result="effect2_dropShadow_1033_6892"/>
<feBlend mode="normal" in="SourceGraphic" in2="effect2_dropShadow_1033_6892" result="shape"/>
</filter>
<filter id="filter5_f_1033_6892" x="-101" y="128" width="912" height="912" filterUnits="userSpaceOnUse" color-interpolation-filters="sRGB">
<feFlood flood-opacity="0" result="BackgroundImageFix"/>
<feBlend mode="normal" in="SourceGraphic" in2="BackgroundImageFix" result="shape"/>
<feGaussianBlur stdDeviation="113" result="effect1_foregroundBlur_1033_6892"/>
</filter>
<filter id="filter6_bd_1033_6892" x="130.858" y="109.216" width="834.284" height="891.568" filterUnits="userSpaceOnUse" color-interpolation-filters="sRGB">
<feFlood flood-opacity="0" result="BackgroundImageFix"/>
<feGaussianBlur in="BackgroundImageFix" stdDeviation="11"/>
<feComposite in2="SourceAlpha" operator="in" result="effect1_backgroundBlur_1033_6892"/>
<feColorMatrix in="SourceAlpha" type="matrix" values="0 0 0 0 0 0 0 0 0 0 0 0 0 0 0 0 0 0 127 0" result="hardAlpha"/>
<feOffset dx="11" dy="13"/>
<feGaussianBlur stdDeviation="34.5"/>
<feComposite in2="hardAlpha" operator="out"/>
<feColorMatrix type="matrix" values="0 0 0 0 0 0 0 0 0 0 0 0 0 0 0 0 0 0 0.06 0"/>
<feBlend mode="normal" in2="effect1_backgroundBlur_1033_6892" result="effect2_dropShadow_1033_6892"/>
<feBlend mode="normal" in="SourceGraphic" in2="effect2_dropShadow_1033_6892" result="shape"/>
</filter>
<filter id="filter7_b_1033_6892" x="133.858" y="110.216" width="806.284" height="863.568" filterUnits="userSpaceOnUse" color-interpolation-filters="sRGB">
<feFlood flood-opacity="0" result="BackgroundImageFix"/>
<feGaussianBlur in="BackgroundImageFix" stdDeviation="27.5"/>
<feComposite in2="SourceAlpha" operator="in" result="effect1_backgroundBlur_1033_6892"/>
<feBlend mode="normal" in="SourceGraphic" in2="effect1_backgroundBlur_1033_6892" result="shape"/>
</filter>
<linearGradient id="paint0_linear_1033_6892" x1="1041" y1="150" x2="521" y2="670" gradientUnits="userSpaceOnUse">
<stop stop-color="#8B81FF"/>
<stop offset="1" stop-color="#5344FF"/>
</linearGradient>
<linearGradient id="paint1_linear_1033_6892" x1="585" y1="354" x2="125" y2="814" gradientUnits="userSpaceOnUse">
<stop stop-color="#017BFF"/>
<stop offset="1" stop-color="#82BEFF"/>
</linearGradient>
<linearGradient id="paint2_linear_1033_6892" x1="548.387" y1="405.6" x2="700.521" y2="393.551" gradientUnits="userSpaceOnUse">
<stop stop-color="#7049B8"/>
<stop offset="1" stop-color="#6594FE"/>
</linearGradient>
<linearGradient id="paint3_linear_1033_6892" x1="497.517" y1="601.267" x2="655.227" y2="588.415" gradientUnits="userSpaceOnUse">
<stop stop-color="#7049B8"/>
<stop offset="1" stop-color="#6594FE"/>
</linearGradient>
<linearGradient id="paint4_linear_1033_6892" x1="636.18" y1="570.116" x2="476.975" y2="570.116" gradientUnits="userSpaceOnUse">
<stop stop-color="#7049B8"/>
<stop offset="1" stop-color="#6594FE"/>
</linearGradient>
<linearGradient id="paint5_linear_1033_6892" x1="690.808" y1="570.759" x2="797.42" y2="561.739" gradientUnits="userSpaceOnUse">
<stop stop-color="#7049B8"/>
<stop offset="1" stop-color="#6594FE"/>
</linearGradient>
<linearGradient id="paint6_linear_1033_6892" x1="519.105" y1="258.012" x2="533.873" y2="834.079" gradientUnits="userSpaceOnUse">
<stop stop-color="#7049B8"/>
<stop offset="1" stop-color="#6594FE"/>
</linearGradient>
<linearGradient id="paint7_linear_1033_6892" x1="519.105" y1="258.012" x2="533.873" y2="834.079" gradientUnits="userSpaceOnUse">
<stop stop-color="#7049B8"/>
<stop offset="1" stop-color="#6594FE"/>
</linearGradient>
<linearGradient id="paint8_linear_1033_6892" x1="939" y1="140" x2="135" y2="944" gradientUnits="userSpaceOnUse">
<stop stop-color="#8B81FF"/>
<stop offset="1" stop-color="#5344FF"/>
</linearGradient>
<clipPath id="clip0_1033_6892">
<rect width="1927" height="1080" fill="white"/>
</clipPath>
</defs>
</svg>
